<?xml version="1.0" encoding="UTF-8"?>
<svg width="57px" height="57px" viewBox="0 0 57 57" version="1.1" xmlns="http://www.w3.org/2000/svg" xmlns:xlink="http://www.w3.org/1999/xlink">
    <title>003-fist</title>
    <g id="Designs" stroke="none" stroke-width="1" fill="none" fill-rule="evenodd">
        <g id="Desktop---Bonus---Step-1" transform="translate(-752.000000, -607.000000)" fill="#3B4262" fill-rule="nonzero">
            <g id="Group-18" transform="translate(447.000000, 246.000000)">
                <g id="Group-8-Copy-2" transform="translate(262.000000, 315.000000)">
                    <g id="Group-6">
                        <g id="Group-5" transform="translate(16.843434, 16.768473)">
                            <g id="003-fist" transform="translate(27.828283, 30.620690)">
                                <path d="M50.9505095,20.7394633 C51.7240581,12.6558532 42.6266532,11.8910348 42.6266532,11.8910348 C40.0219601,4.56274683 33.2672148,8.34707351 33.2672148,8.34707351 C29.8827939,1.01819206 23.1290141,6.06567556 23.1290141,6.06567556 C13.5102458,3.27941056 12.476788,11.3628229 12.476788,11.3628229 C11.7967031,13.8704279 12.0191912,22.0386698 12.0191912,22.0386698 C11.3657489,17.2381793 7.54546306,20.4537931 7.54546306,20.4537931 C2.61124154,25.7552928 4.95332184,29.5465438 4.95332184,29.5465438 C9.11727762,36.6233874 19.000976,45.9782657 19.000976,45.9782657 C22.6420235,49.0126118 20.5641008,50.7794487 20.5641008,50.7794487 L45.7754962,51.0512703 L47.1578567,46.5049606 C52.8677509,35.8987957 50.9505095,20.7394633 50.9505095,20.7394633 Z" id="Path" transform="translate(27.828907, 27.711311) rotate(-10.000000) translate(-27.828907, -27.711311) "></path>
                            </g>
                        </g>
                    </g>
                </g>
            </g>
        </g>
    </g>
</svg>