<?xml version="1.0" encoding="UTF-8"?>
<svg width="72px" height="72px" viewBox="0 0 72 72" version="1.1" xmlns="http://www.w3.org/2000/svg" xmlns:xlink="http://www.w3.org/1999/xlink">
    <title>hand</title>
    <g id="Designs" stroke="none" stroke-width="1" fill="none" fill-rule="evenodd">
        <g id="Desktop---Bonus---Step-1" transform="translate(-647.000000, -285.000000)" fill="#3B4262" fill-rule="nonzero">
            <g id="Group-18" transform="translate(447.000000, 246.000000)">
                <g id="Group-8-Copy" transform="translate(164.000000, 0.000000)">
                    <g id="Group-6">
                        <g id="Group-5" transform="translate(16.843434, 16.768473)">
                            <g id="hand" transform="translate(20.505051, 23.330049)">
                                <path d="M22.4827474,42.8782586 L20.7830738,32.6764433 C18.7228841,34.1502457 15.4131599,37.3299594 15.4012955,42.633852 C15.3826853,50.994448 22.6962345,61.7015141 24.5236215,64.2363558 L45.7722451,64.188967 C47.525647,62.1087164 54.8845183,52.4938311 54.9209132,36.1747679 C54.8319538,35.9121384 55.3584991,32.4547777 52.1085237,32.4620258 C50.5572794,32.4654854 49.2849444,33.7666926 49.2814099,35.3515525 C49.2796103,36.1584381 48.6566465,36.7932426 47.866539,36.7950047 C47.0764315,36.7967668 46.456293,36.1647346 46.4580925,35.3578491 L46.4709529,29.5913771 C46.4774886,26.6608318 42.6268304,25.578684 41.1697813,28.2207252 L40.8202638,32.6028452 C40.7631567,33.4098541 40.0560437,33.9870241 39.2923962,33.9335334 C38.5024177,33.8774731 37.9404138,33.1585781 37.9974564,32.3804804 C39.0430894,16.8982667 38.7061231,18.9739058 39.0613814,8.69634137 C39.4013273,5.06330215 33.9900407,4.64958929 33.7001526,8.27463204 L32.3528809,32.6506403 C32.2960318,33.3420043 31.7284985,33.9214913 31.0226047,33.9519767 C30.2323683,34.0115612 29.6962499,33.494986 29.5582118,32.8014283 L24.6447015,9.94538504 C24.1880416,6.86606093 19.6435696,7.4833284 20.0447344,10.6468812 L25.2492197,42.3806007 C25.3896981,43.1608862 24.8507545,43.9111475 24.0893597,44.0284899 C23.3542374,44.1746847 22.5942611,43.6559804 22.4827474,42.8782586 Z" id="Path" transform="translate(35.161104, 34.995533) rotate(45.000000) translate(-35.161104, -34.995533) "></path>
                            </g>
                        </g>
                    </g>
                </g>
            </g>
        </g>
    </g>
</svg>