<?xml version="1.0" encoding="UTF-8"?>
<svg width="46px" height="61px" viewBox="0 0 46 61" version="1.1" xmlns="http://www.w3.org/2000/svg" xmlns:xlink="http://www.w3.org/1999/xlink">
    <title>001-five-fingers</title>
    <g id="Designs" stroke="none" stroke-width="1" fill="none" fill-rule="evenodd">
        <g id="Desktop---Bonus---Step-1" transform="translate(-499.000000, -418.000000)" fill="#3B4262" fill-rule="nonzero">
            <g id="Group-18" transform="translate(447.000000, 246.000000)">
                <g id="Group-8-Copy-4" transform="translate(0.000000, 129.000000)">
                    <g id="Group-6">
                        <g id="Group-5" transform="translate(16.843434, 16.768473)">
                            <g id="001-five-fingers" transform="translate(36.616162, 27.704433)">
                                <g id="vulcan-salute">
                                    <path d="M43.581895,31.948663 L42.7188995,31.0895082 C40.6568415,29.0354882 37.2858727,28.58814 34.7684021,30.0286082 L29.392588,33.0877094 L30.5130403,8.58630712 C30.5130403,6.53228712 28.8347647,4.86034149 26.7701894,4.86034149 C26.3243885,4.86034149 25.8952937,4.93871572 25.4972081,5.08224993 L25.6307424,3.76743107 C25.6308568,1.68971653 23.9262634,0 21.8331962,0 C19.8974637,0 18.2739978,1.44536664 18.0689477,3.2987805 L14.6193687,24.0481304 C14.5740563,24.3305282 14.082943,24.3020492 14.0305362,24.1241124 L9.95630963,7.48884005 C9.51050873,5.94151857 8.07058099,4.86045541 6.45432389,4.86045541 C5.33627446,4.86045541 4.2968352,5.36123029 3.60078622,6.23462452 C2.90702573,7.10801875 2.65437471,8.23168651 2.9118316,9.3151419 L3.70331127,12.6649568 C3.25270451,12.6281619 2.79980925,12.6886513 2.36831151,12.8334386 C0.761551705,13.3662239 -0.218271981,14.9634406 0.0415878338,16.6507649 L2.43982731,30.3776469 C2.43982731,35.793443 3.39344761,39.8006673 4.19442458,42.2071435 C4.64972277,43.5800596 4.88097627,45.0241731 4.88097627,46.4991579 C4.88097627,47.7831056 4.70212955,49.0611295 4.34695348,50.2951819 L2.48742823,56.7765486 C2.38250024,57.1432443 2.45641898,57.5371659 2.68526954,57.8421192 C2.91652303,58.1459332 3.27650497,58.3251232 3.66028736,58.3251232 L25.6307424,58.3251232 C26.0241365,58.3251232 26.3912128,58.1376174 26.6200634,57.8208169 C26.8513169,57.5040164 26.9133354,57.0957413 26.7892984,56.7255142 C26.7773981,56.6935038 25.7570679,53.5560284 26.7225884,49.2877085 C27.9479688,48.298006 32.2366283,44.8259592 33.7766782,43.4258173 C36.3227551,41.1107017 43.2981203,33.9576861 43.5937952,33.653986 C44.0587051,33.1780448 44.0538993,32.4185666 43.581895,31.948663 Z" id="Path"></path>
                                </g>
                            </g>
                        </g>
                    </g>
                </g>
            </g>
        </g>
    </g>
</svg>