<?xml version="1.0" encoding="UTF-8"?>
<svg width="336px" height="330px" viewBox="0 0 336 330" version="1.1" xmlns="http://www.w3.org/2000/svg" xmlns:xlink="http://www.w3.org/1999/xlink">
    <title>Group 21</title>
    <defs>
        <linearGradient x1="50%" y1="0%" x2="50%" y2="100%" id="linearGradient-1">
            <stop stop-color="#FFFFFF" stop-opacity="0.096645542" offset="0%"></stop>
            <stop stop-color="#FFFFFF" stop-opacity="0" offset="100%"></stop>
        </linearGradient>
    </defs>
    <g id="Designs" stroke="none" stroke-width="1" fill="none" fill-rule="evenodd">
        <g id="Desktop---Bonus---Rules-Modal" transform="translate(-515.000000, -238.000000)">
            <g id="Group-22" transform="translate(483.000000, 154.000000)">
                <g id="Group-21" transform="translate(32.000000, 84.000000)">
                    <g id="Group-8" transform="translate(233.000000, 92.000000)">
                        <g id="Group-6">
                            <ellipse id="Oval-Copy" fill="#B1B4C5" cx="51.5" cy="50.1724138" rx="51.5" ry="50.1724138"></ellipse>
                            <ellipse id="Oval-Copy-4" fill="url(#linearGradient-1)" cx="51.5" cy="50.1724138" rx="51.5" ry="50.1724138"></ellipse>
                            <g id="Group-5" transform="translate(11.964646, 11.896552)">
                                <ellipse id="Oval-Copy-2" fill="#E1E4ED" cx="39.5353535" cy="39.3103448" rx="39.5353535" ry="39.3103448"></ellipse>
                                <g id="001-five-fingers" transform="translate(20.287879, 19.137931)" fill="#8A90AC" fill-rule="nonzero">
                                    <path d="M35.4247487,11.1105976 C35.1418801,10.9793695 34.842641,10.9101376 34.5620048,10.9100265 C34.1564864,10.9098659 33.8191339,11.050734 33.6073191,11.3050777 C32.3588375,12.8165801 31.2173188,15.7561797 30.2974276,18.1178986 C29.8746411,19.2102781 29.3074104,20.6720147 28.9227464,21.3577067 C28.7121223,19.3465703 29.6158515,12.0965234 29.9649678,9.30454911 L29.9706184,9.25945853 C30.2129823,7.31969618 30.2511312,6.97926051 30.2383384,6.8276742 C30.1443338,5.7477507 29.764774,5.01666314 29.109609,4.65548768 C28.4473782,4.28936656 27.5485542,4.36800973 26.5506584,4.87655634 C26.0502724,5.13295364 25.847906,6.11901873 25.1202817,10.6017371 L25.1174117,10.6215074 C24.7171475,13.0841972 23.7957835,18.7546878 23.0865307,19.6601655 C22.4543316,18.279728 21.9849049,10.6547802 21.7829243,7.35442619 C21.6416856,5.04301646 21.5581347,3.71569362 21.4679743,3.31034285 C21.2776964,2.46087489 20.278502,1.67950624 19.2428596,1.56766478 C18.3815498,1.46439063 17.6416558,1.85389032 17.249862,2.59317065 C16.5674586,3.252643 16.6279576,5.60208949 16.9413377,11.1785476 C17.0905615,13.8324924 17.3982355,19.3145135 16.9228324,19.8937679 C16.0664734,19.7397663 14.8230566,16.2324401 13.2268055,9.46632428 C12.7787597,7.57138131 12.6389121,7.00107521 12.4785212,6.74450292 C12.1882053,5.86958727 11.0452213,5.13047955 9.97412954,5.13005534 C9.88264808,5.13001911 9.79334907,5.13562035 9.7047497,5.14616473 C9.13905838,5.21782904 7.82996987,5.64170337 7.93583174,8.02776238 C8.45822902,11.3620629 9.10638385,13.8287233 9.73541115,16.222794 L9.74816266,16.2707535 C10.1244269,17.7046807 10.4801657,19.0596007 10.7940144,20.557587 C11.5333792,24.094284 11.0011216,26.2193324 10.9947649,26.2432638 C10.9466261,26.4624652 10.8687138,26.5928566 10.7624229,26.6329645 C10.7241444,26.6477779 10.6759211,26.6547829 10.6221136,26.6547616 C10.309472,26.6546378 9.85711508,26.4162471 9.6259531,26.2652681 C9.14988637,25.1781692 6.76380764,19.988515 4.33349203,19.1219438 L4.24627086,19.0894771 L4.1555751,19.0915224 C3.24042065,19.1137064 2.54793087,19.4101776 2.09807312,19.9725323 C1.38532551,20.8617926 1.57007807,22.0707868 1.61840108,22.3139603 L1.64895906,22.4020769 C1.66667722,22.4394589 3.40143798,26.1978519 3.59135904,27.9030426 C3.75571843,29.3650689 5.0188935,31.0255052 6.03452881,32.3596142 L6.07641039,32.4139156 C6.40762673,32.8504065 6.69347115,33.2275651 6.9154668,33.5737404 C9.88423215,37.1331731 14.7519722,40.2929857 14.7916621,40.3184095 C15.3908986,40.8282824 15.710793,41.3027508 15.7208028,41.6926342 C15.726573,41.9478445 15.5841314,42.0901773 15.5791625,42.0950315 L15.4608636,42.2021668 L16.1132969,42.9305875 L29.5387429,42.9274064 L30.2905893,40.3605354 C32.566719,33.1215248 32.6379867,26.8185309 32.635092,26.7762119 C32.6576743,26.5457272 33.3075464,24.3467558 33.8306986,22.5699591 L33.8455932,22.5248722 C34.8883277,18.9853255 36.1852787,14.5810513 36.4929747,12.8929674 C36.6259414,12.1712749 36.2067139,11.4704358 35.4247487,11.1105976 Z" id="Path" transform="translate(19.039127, 22.240925) rotate(-4.000000) translate(-19.039127, -22.240925) "></path>
                                </g>
                            </g>
                        </g>
                    </g>
                    <g id="Group-8-Copy-4" transform="translate(0.000000, 92.000000)">
                        <g id="Group-6">
                            <ellipse id="Oval" fill="#B1B4C5" cx="51.5" cy="52.5" rx="51.5" ry="52.5"></ellipse>
                            <ellipse id="Oval-Copy-4" fill="url(#linearGradient-1)" cx="51.5" cy="50.1724138" rx="51.5" ry="50.1724138"></ellipse>
                            <g id="Group-5" transform="translate(11.964646, 11.896552)">
                                <ellipse id="Oval-Copy-2" fill="#E1E4ED" cx="39.5353535" cy="39.3103448" rx="39.5353535" ry="39.3103448"></ellipse>
                                <g id="001-five-fingers" transform="translate(26.010101, 19.655172)" fill="#8A90AC" fill-rule="nonzero">
                                    <g id="vulcan-salute">
                                        <path d="M30.9581737,22.6662812 L30.3451493,22.0567457 C28.8803771,20.5995018 26.4858268,20.2821263 24.6975546,21.3040802 L20.8788728,23.4743884 L21.6747804,6.09163681 C21.6747804,4.63439289 20.482626,3.44821525 19.0160655,3.44821525 C18.6993932,3.44821525 18.3945879,3.50381859 18.1118099,3.60565029 L18.2066653,2.67283961 C18.2067466,1.19878537 16.9958975,0 15.509098,0 C14.1340604,0 12.9808398,1.02542903 12.8351835,2.34035103 L10.3847929,17.0611736 C10.3526055,17.2615234 10.0037457,17.2413187 9.96651882,17.1150797 L7.07241305,5.31302842 C6.75574069,4.21526655 5.73289546,3.44829607 4.58479559,3.44829607 C3.79059496,3.44829607 3.05223466,3.80357555 2.55779986,4.42321334 C2.06499069,5.04285114 1.88552135,5.84004786 2.06840451,6.60871554 L2.630628,8.9852734 C2.31054182,8.95916892 1.98883002,9.00208371 1.68231783,9.10480442 C0.540964315,9.48279398 -0.155048372,10.6159545 0.0295417026,11.8130427 L1.73311871,21.551709 C1.73311871,25.3939967 2.41051796,28.2369599 2.9794878,29.9442572 C3.30290652,30.9182855 3.46717624,31.9428255 3.46717624,32.9892675 C3.46717624,33.9001762 3.34013341,34.8068824 3.08783592,35.6823926 L1.76693178,40.2806595 C1.69239673,40.5408152 1.74490451,40.8202867 1.90746733,41.0366386 C2.07173705,41.2521824 2.32744836,41.3793103 2.6000662,41.3793103 L18.2066653,41.3793103 C18.4861108,41.3793103 18.7468615,41.2462826 18.9094243,41.0215255 C19.0736941,40.7967684 19.1177486,40.5071138 19.0296395,40.2444526 C19.0211863,40.2217426 18.2964,37.995831 18.9822525,34.9676311 C19.8526951,34.2654773 22.8991222,31.8022008 23.9930886,30.8088569 C25.8016812,29.1663762 30.7565958,24.0916017 30.966627,23.8761387 C31.2968733,23.5384777 31.2934595,22.9996587 30.9581737,22.6662812 Z" id="Path"></path>
                                    </g>
                                </g>
                            </g>
                        </g>
                    </g>
                    <g id="Group-8-Copy" transform="translate(117.000000, 0.000000)">
                        <g id="Group-6">
                            <ellipse id="Oval" fill="#B1B4C5" cx="51.5" cy="52.5" rx="51.5" ry="52.5"></ellipse>
                            <ellipse id="Oval-Copy-4" fill="url(#linearGradient-1)" cx="51.5" cy="50.1724138" rx="51.5" ry="50.1724138"></ellipse>
                            <g id="Group-5" transform="translate(11.964646, 11.896552)">
                                <ellipse id="Oval-Copy-2" fill="#E1E4ED" cx="39.5353535" cy="39.3103448" rx="39.5353535" ry="39.3103448"></ellipse>
                                <g id="hand" transform="translate(14.565657, 16.551724)" fill="#8A90AC" fill-rule="nonzero">
                                    <path d="M15.971727,30.4274923 L14.7696413,23.1859541 C13.3064558,24.2331216 10.9554678,26.4918723 10.9446812,30.2571223 C10.9277848,36.1923355 16.1149492,43.7900671 17.4110931,45.5887477 L32.4955574,45.5456999 C33.7412221,44.0681494 38.969557,37.239264 39.002618,25.6543099 C38.9395818,25.4679081 39.314908,23.0132872 37.0077402,23.0198714 C35.906507,23.0230141 35.0026977,23.9473071 34.9994869,25.0724041 C34.9978522,25.6452147 34.5553278,26.0961395 33.9944281,26.0977402 C33.4335283,26.0993409 32.9935704,25.6509345 32.9952051,25.0781239 L33.0068874,20.9844874 C33.0128245,18.9040841 30.279713,18.1375697 29.2441811,20.0138054 L28.994118,23.1248365 C28.9532203,23.6977591 28.4509837,24.1078064 27.9088924,24.0701713 C27.3481098,24.0307236 26.9494603,23.5206274 26.9902994,22.9682289 C27.7394503,11.9769093 27.4993183,13.4505592 27.7560666,6.15433683 C27.9990033,3.57508401 24.1577025,3.28378386 23.9503055,5.8573378 L22.9830836,23.1625147 C22.9424202,23.6533407 22.5392706,24.064971 22.0381416,24.0869251 C21.4771246,24.1295741 21.0967618,23.7630936 20.9990752,23.2707966 L17.5210817,7.04741765 C17.1982611,4.86160101 13.9718574,5.30181228 14.2552447,7.5474476 L17.9358719,30.0729792 C18.0352525,30.6268433 17.6523231,31.159694 17.1117554,31.2433327 C16.5898257,31.3474421 16.0505466,30.9795492 15.971727,30.4274923 Z" id="Path" transform="translate(24.973650, 24.828000) rotate(45.000000) translate(-24.973650, -24.828000) "></path>
                                </g>
                            </g>
                        </g>
                    </g>
                    <g id="Group-8-Copy-2" transform="translate(187.000000, 225.000000)">
                        <g id="Group-6">
                            <ellipse id="Oval" fill="#B1B4C5" cx="51.5" cy="52.5" rx="51.5" ry="52.5"></ellipse>
                            <ellipse id="Oval-Copy-4" fill="url(#linearGradient-1)" cx="51.5" cy="50.1724138" rx="51.5" ry="50.1724138"></ellipse>
                            <g id="Group-5" transform="translate(11.964646, 11.896552)">
                                <ellipse id="Oval-Copy-2" fill="#E1E4ED" cx="39.5353535" cy="39.3103448" rx="39.5353535" ry="39.3103448"></ellipse>
                                <g id="003-fist" transform="translate(19.767677, 21.724138)" fill="#8A90AC" fill-rule="nonzero">
                                    <path d="M36.1909974,14.717122 C36.7392391,8.98202967 30.2770716,8.43802418 30.2770716,8.43802418 C28.4258014,3.23831097 23.6283563,5.92221565 23.6283563,5.92221565 C21.2232311,0.721963288 16.4266631,4.30206039 16.4266631,4.30206039 C9.59385573,2.3237876 8.86099578,8.05870025 8.86099578,8.05870025 C8.37829885,9.83770836 8.53757285,15.6329966 8.53757285,15.6329966 C8.07269414,12.2270161 5.35956271,14.5078711 5.35956271,14.5078711 C1.85549839,18.2684647 3.51969451,20.9586594 3.51969451,20.9586594 C6.47849928,25.9802124 13.5004858,32.6188656 13.5004858,32.6188656 C16.0872473,34.7722434 14.6115286,36.0254751 14.6115286,36.0254751 L32.519681,36.2221459 L33.5009084,32.9968114 C37.5551439,25.4727488 36.1909974,14.717122 36.1909974,14.717122 Z" id="Path" transform="translate(19.768246, 19.661419) rotate(-10.000000) translate(-19.768246, -19.661419) "></path>
                                </g>
                            </g>
                        </g>
                    </g>
                    <g id="Group-8-Copy-3" transform="translate(46.000000, 225.000000)">
                        <g id="Group-6">
                            <ellipse id="Oval" fill="#B1B4C5" cx="51.5" cy="52.5" rx="51.5" ry="52.5"></ellipse>
                            <ellipse id="Oval-Copy-4" fill="url(#linearGradient-1)" cx="51.5" cy="50.1724138" rx="51.5" ry="50.1724138"></ellipse>
                            <g id="Group-5" transform="translate(11.964646, 11.896552)">
                                <ellipse id="Oval-Copy-2" fill="#E1E4ED" cx="39.5353535" cy="39.3103448" rx="39.5353535" ry="39.3103448"></ellipse>
                                <g id="lizard" transform="translate(17.686869, 20.172414)" fill="#8A90AC" fill-rule="nonzero">
                                    <path d="M34.6230802,1.34382215 C36.9166348,-0.0749453293 39.1149904,-0.382268523 40.8132084,0.478896738 C44.6194298,2.40886072 44.0684463,9.5920245 42.5107863,12.7046004 C41.6314989,14.4615059 40.0730158,15.7454584 37.8739286,16.5261932 C37.0223247,19.2211117 35.8258697,21.5374797 34.2986596,23.4529872 C35.2986541,24.2898877 36.5726423,24.7567528 37.9058177,24.7567528 L37.9058177,24.7567528 L37.9695114,24.7567528 L40.1155804,22.6408362 C40.655847,22.1083161 41.5316571,22.1081379 42.071743,22.6408362 C42.6119192,23.1734453 42.6119192,24.0370757 42.071743,24.5695958 L42.071743,24.5695958 L41.8818366,24.7568419 L42.3136885,24.7568419 C43.0776507,24.7568419 43.6969697,25.3674851 43.6969697,26.1206563 C43.6969697,26.8738274 43.0776507,27.4844706 42.3138691,27.4843816 L42.3138691,27.4843816 L41.8820172,27.4843816 L42.0719237,27.6717167 C42.6120999,28.2043259 42.6120999,29.0679562 42.0719237,29.6004763 C41.8018807,29.8668254 41.447726,30 41.0938424,30 C40.739778,30 40.3858944,29.8669145 40.1156707,29.6004763 L40.1156707,29.6004763 L37.9696017,27.4844706 L37.9059081,27.4844706 C35.8711913,27.4844706 33.9290767,26.7570155 32.4188644,25.4574225 C32.1244819,25.7250146 31.8199535,25.9813149 31.5064798,26.226179 C28.8554318,28.2969882 25.614469,29.5016421 21.8261052,29.8312661 C22.3044691,31.2662095 22.3969912,32.821157 22.0703623,34.3379618 L22.0703623,34.3379618 L22.056722,34.4013768 L23.7081054,36.9988181 C24.1238612,37.6525439 23.9363528,38.5230755 23.2896216,38.9432687 C23.0566456,39.0944538 22.7958434,39.1667836 22.5382239,39.1667836 C22.0801833,39.1667836 21.6316909,38.9384896 21.3657054,38.5200426 L21.3657054,38.5200426 L21.2195725,38.2901862 L21.1270914,38.7194782 C20.9852325,39.3779831 20.4086123,39.8275862 19.7679738,39.8275862 C19.6698547,39.8275862 19.5703716,39.817017 19.4706156,39.7951435 C18.7193089,39.6298969 18.2428085,38.8804052 18.406219,38.1209877 L18.406219,38.1209877 L18.4987001,37.6916958 L18.2713621,37.8393884 C17.624449,38.2593978 16.7631107,38.0701638 16.3474459,37.4162541 C15.9316901,36.7625283 16.1191985,35.8919967 16.7660207,35.4718035 L16.7660207,35.4718035 L19.3359406,33.8027944 L19.3495809,33.7394713 C19.6313115,32.4307777 19.4455144,31.0800651 18.8432662,29.9117979 C17.7457149,29.8823191 16.6100557,29.7875705 15.436143,29.6287447 C12.1083855,29.1786277 10.2211413,30.6449014 9.72191825,31.1050149 C5.80239082,34.717782 5.04345106,41.1028776 5.0361351,41.1669835 C4.97038287,41.7507234 4.54934918,42.2318387 3.98062446,42.3727983 C3.86905602,42.4003116 3.75629873,42.4137931 3.64473029,42.4137931 C3.18821417,42.4137931 2.75126825,42.1891931 2.48670472,41.7986882 C2.42424468,41.706427 0.949072098,39.5041734 0.301975129,36.3960913 C-0.576763535,32.1751893 0.470973885,28.3032472 3.3320643,25.1986501 C4.99123337,23.3980902 7.10993639,22.029672 9.45890937,21.2416004 C9.48668396,21.2322812 9.51449217,21.2230422 9.5423335,21.2138833 L9.25032648,21.2899395 C8.50995453,20.9455455 7.69332381,20.7602533 6.85275456,20.7602533 L6.85275456,20.7602533 L6.78882777,20.7602533 L4.63490306,22.8763258 C4.36378093,23.1426833 4.00842053,23.2758621 3.65315081,23.2758621 C3.29788108,23.2758621 2.94261136,23.1426833 2.67148924,22.8763258 C2.12942634,22.3436998 2.12942634,21.4800422 2.67148924,20.9475053 L2.67148924,20.9475053 L2.86218149,20.7601642 L2.42865812,20.7601642 C1.66199004,20.7601642 1.04040404,20.1497689 1.04040404,19.396574 C1.04040404,18.643379 1.66199004,18.0327165 2.42865812,18.0327165 L2.42865812,18.0327165 L2.86209081,18.0327165 L2.67148924,17.8454645 C2.12942634,17.3128386 2.12942634,16.4491809 2.67148924,15.916644 C3.21364281,15.3841072 4.09274949,15.3841072 4.63481238,15.916644 L4.63481238,15.916644 L6.78873709,18.0326275 L6.85266388,18.0326275 C9.19791558,18.0326275 11.4205729,18.9923163 13.0050505,20.67607 L12.851108,20.5177855 C14.1055944,20.3923784 15.385396,20.4137135 16.6528792,20.5853172 C20.1657505,21.0604342 23.0392339,20.5718301 25.2571473,19.1293333 C24.0212317,17.608496 23.3325451,15.6814993 23.3325451,13.6657024 L23.3325451,13.6657024 L23.3325451,13.6007316 L21.208953,11.4118177 C20.6744568,10.8608108 20.6744568,9.96734836 21.208953,9.4164336 C21.7434492,8.86551884 22.6101394,8.86551884 23.1445462,9.4164336 L23.1445462,9.4164336 L23.3324557,9.61014769 L23.3324557,9.1695449 C23.3324557,8.39035717 23.9452625,7.75862069 24.7011021,7.75862069 C25.4569418,7.75862069 26.0697485,8.39035717 26.0697485,9.1695449 L26.0697485,9.1695449 L26.0697485,9.61014769 L26.2576581,9.4164336 C26.7921543,8.86551884 27.6588445,8.86551884 28.1932513,9.4164336 C29.0076451,10.2559842 28.4202267,11.1779232 28.1933407,11.4119099 C27.9663653,11.6458966 26.0699273,13.600916 26.0699273,13.600916 L26.0699273,13.600916 L26.0699273,13.6658867 C26.0699273,14.998427 26.5206984,16.2723786 27.3286949,17.2835846 C28.3311389,16.0857995 29.1190892,14.5808999 29.6899261,12.7699903 C29.2723675,11.6174595 28.6236244,8.88750144 30.2780381,5.7915252 C31.1444311,4.17016837 32.8093615,2.46590489 34.6230802,1.34382215 Z" id="Combined-Shape"></path>
                                </g>
                            </g>
                        </g>
                    </g>
                    <g id="Group-13-Copy-2" transform="translate(94.500000, 78.000000) rotate(-40.000000) translate(-94.500000, -78.000000) translate(77.000000, 70.000000)" fill="#B1B4C5">
                        <g id="Group-15" transform="translate(0.000000, 0.000000)">
                            <rect id="Rectangle" x="0" y="6.66666667" width="32.6923077" height="2.66666667" rx="1.33333333"></rect>
                            <g id="Group-12" transform="translate(24.192308, 0.000000)">
                                <g id="Group-14">
                                    <path d="M1.14628828,3.83088433 L9.23279536,3.97385421 C9.91014034,3.98582971 10.4544619,4.53557953 10.4597157,5.21301 C10.4648,5.86859929 9.93746159,6.4041811 9.28187231,6.40926546 C9.27180858,6.40934351 9.26174426,6.40929358 9.25168181,6.40911567 L1.16517473,6.26614579 C0.487829742,6.25417029 -0.0564918246,5.70442047 -0.0617455753,5.02699 C-0.0668299387,4.37140071 0.460508492,3.8358189 1.11609778,3.83073454 C1.12616151,3.83065649 1.13622582,3.83070642 1.14628828,3.83088433 Z" id="Rectangle-Copy-2" transform="translate(5.198985, 5.120000) rotate(45.000000) translate(-5.198985, -5.120000) "></path>
                                    <path d="M1.16517473,9.73385421 L9.25168181,9.59088433 C9.90718836,9.57929494 10.4479765,10.1012929 10.4595659,10.7567995 C10.4597438,10.766862 10.4597937,10.7769263 10.4597157,10.78699 C10.4544619,11.4644205 9.91014034,12.0141703 9.23279536,12.0261458 L1.14628828,12.1691157 C0.490781723,12.1807051 -0.0500063929,11.6587071 -0.0615957845,11.0032005 C-0.0617736894,10.993138 -0.0618236237,10.9830737 -0.0617455753,10.97301 C-0.0564918246,10.2955795 0.487829742,9.74582971 1.16517473,9.73385421 Z" id="Rectangle-Copy-3" transform="translate(5.198985, 10.880000) rotate(-45.000000) translate(-5.198985, -10.880000) "></path>
                                </g>
                            </g>
                        </g>
                    </g>
                    <g id="Group-13-Copy-3" transform="translate(242.500000, 78.000000) scale(1, -1) rotate(-40.000000) translate(-242.500000, -78.000000) translate(225.000000, 70.000000)" fill="#B1B4C5">
                        <g id="Group-15" transform="translate(0.000000, 0.000000)">
                            <rect id="Rectangle" x="0" y="6.66666667" width="32.6923077" height="2.66666667" rx="1.33333333"></rect>
                            <g id="Group-12" transform="translate(24.192308, 0.000000)">
                                <g id="Group-14">
                                    <path d="M1.14628828,3.83088433 L9.23279536,3.97385421 C9.91014034,3.98582971 10.4544619,4.53557953 10.4597157,5.21301 C10.4648,5.86859929 9.93746159,6.4041811 9.28187231,6.40926546 C9.27180858,6.40934351 9.26174426,6.40929358 9.25168181,6.40911567 L1.16517473,6.26614579 C0.487829742,6.25417029 -0.0564918246,5.70442047 -0.0617455753,5.02699 C-0.0668299387,4.37140071 0.460508492,3.8358189 1.11609778,3.83073454 C1.12616151,3.83065649 1.13622582,3.83070642 1.14628828,3.83088433 Z" id="Rectangle-Copy-2" transform="translate(5.198985, 5.120000) rotate(45.000000) translate(-5.198985, -5.120000) "></path>
                                    <path d="M1.16517473,9.73385421 L9.25168181,9.59088433 C9.90718836,9.57929494 10.4479765,10.1012929 10.4595659,10.7567995 C10.4597438,10.766862 10.4597937,10.7769263 10.4597157,10.78699 C10.4544619,11.4644205 9.91014034,12.0141703 9.23279536,12.0261458 L1.14628828,12.1691157 C0.490781723,12.1807051 -0.0500063929,11.6587071 -0.0615957845,11.0032005 C-0.0617736894,10.993138 -0.0618236237,10.9830737 -0.0617455753,10.97301 C-0.0564918246,10.2955795 0.487829742,9.74582971 1.16517473,9.73385421 Z" id="Rectangle-Copy-3" transform="translate(5.198985, 10.880000) rotate(-45.000000) translate(-5.198985, -10.880000) "></path>
                                </g>
                            </g>
                        </g>
                    </g>
                    <g id="Group-13-Copy-4" transform="translate(288.500000, 218.000000) scale(-1, -1) rotate(-53.000000) translate(-288.500000, -218.000000) translate(271.000000, 210.000000)" fill="#B1B4C5">
                        <g id="Group-15" transform="translate(0.000000, 0.000000)">
                            <rect id="Rectangle" x="0" y="6.66666667" width="32.6923077" height="2.66666667" rx="1.33333333"></rect>
                            <g id="Group-12" transform="translate(24.192308, 0.000000)">
                                <g id="Group-14">
                                    <path d="M1.14628828,3.83088433 L9.23279536,3.97385421 C9.91014034,3.98582971 10.4544619,4.53557953 10.4597157,5.21301 C10.4648,5.86859929 9.93746159,6.4041811 9.28187231,6.40926546 C9.27180858,6.40934351 9.26174426,6.40929358 9.25168181,6.40911567 L1.16517473,6.26614579 C0.487829742,6.25417029 -0.0564918246,5.70442047 -0.0617455753,5.02699 C-0.0668299387,4.37140071 0.460508492,3.8358189 1.11609778,3.83073454 C1.12616151,3.83065649 1.13622582,3.83070642 1.14628828,3.83088433 Z" id="Rectangle-Copy-2" transform="translate(5.198985, 5.120000) rotate(45.000000) translate(-5.198985, -5.120000) "></path>
                                    <path d="M1.16517473,9.73385421 L9.25168181,9.59088433 C9.90718836,9.57929494 10.4479765,10.1012929 10.4595659,10.7567995 C10.4597438,10.766862 10.4597937,10.7769263 10.4597157,10.78699 C10.4544619,11.4644205 9.91014034,12.0141703 9.23279536,12.0261458 L1.14628828,12.1691157 C0.490781723,12.1807051 -0.0500063929,11.6587071 -0.0615957845,11.0032005 C-0.0617736894,10.993138 -0.0618236237,10.9830737 -0.0617455753,10.97301 C-0.0564918246,10.2955795 0.487829742,9.74582971 1.16517473,9.73385421 Z" id="Rectangle-Copy-3" transform="translate(5.198985, 10.880000) rotate(-45.000000) translate(-5.198985, -10.880000) "></path>
                                </g>
                            </g>
                        </g>
                    </g>
                    <g id="Group-13-Copy-6" transform="translate(168.500000, 305.000000) scale(-1, 1) translate(-168.500000, -305.000000) translate(151.000000, 297.000000)" fill="#B1B4C5">
                        <g id="Group-15" transform="translate(0.000000, 0.000000)">
                            <rect id="Rectangle" x="0" y="6.66666667" width="32.6923077" height="2.66666667" rx="1.33333333"></rect>
                            <g id="Group-12" transform="translate(24.192308, 0.000000)">
                                <g id="Group-14">
                                    <path d="M1.14628828,3.83088433 L9.23279536,3.97385421 C9.91014034,3.98582971 10.4544619,4.53557953 10.4597157,5.21301 C10.4648,5.86859929 9.93746159,6.4041811 9.28187231,6.40926546 C9.27180858,6.40934351 9.26174426,6.40929358 9.25168181,6.40911567 L1.16517473,6.26614579 C0.487829742,6.25417029 -0.0564918246,5.70442047 -0.0617455753,5.02699 C-0.0668299387,4.37140071 0.460508492,3.8358189 1.11609778,3.83073454 C1.12616151,3.83065649 1.13622582,3.83070642 1.14628828,3.83088433 Z" id="Rectangle-Copy-2" transform="translate(5.198985, 5.120000) rotate(45.000000) translate(-5.198985, -5.120000) "></path>
                                    <path d="M1.16517473,9.73385421 L9.25168181,9.59088433 C9.90718836,9.57929494 10.4479765,10.1012929 10.4595659,10.7567995 C10.4597438,10.766862 10.4597937,10.7769263 10.4597157,10.78699 C10.4544619,11.4644205 9.91014034,12.0141703 9.23279536,12.0261458 L1.14628828,12.1691157 C0.490781723,12.1807051 -0.0500063929,11.6587071 -0.0615957845,11.0032005 C-0.0617736894,10.993138 -0.0618236237,10.9830737 -0.0617455753,10.97301 C-0.0564918246,10.2955795 0.487829742,9.74582971 1.16517473,9.73385421 Z" id="Rectangle-Copy-3" transform="translate(5.198985, 10.880000) rotate(-45.000000) translate(-5.198985, -10.880000) "></path>
                                </g>
                            </g>
                        </g>
                    </g>
                    <g id="Group-13-Copy-5" transform="translate(47.500000, 218.000000) scale(-1, 1) rotate(-53.000000) translate(-47.500000, -218.000000) translate(30.000000, 210.000000)" fill="#B1B4C5">
                        <g id="Group-15" transform="translate(0.000000, 0.000000)">
                            <rect id="Rectangle" x="0" y="6.66666667" width="32.6923077" height="2.66666667" rx="1.33333333"></rect>
                            <g id="Group-12" transform="translate(24.192308, 0.000000)">
                                <g id="Group-14">
                                    <path d="M1.14628828,3.83088433 L9.23279536,3.97385421 C9.91014034,3.98582971 10.4544619,4.53557953 10.4597157,5.21301 C10.4648,5.86859929 9.93746159,6.4041811 9.28187231,6.40926546 C9.27180858,6.40934351 9.26174426,6.40929358 9.25168181,6.40911567 L1.16517473,6.26614579 C0.487829742,6.25417029 -0.0564918246,5.70442047 -0.0617455753,5.02699 C-0.0668299387,4.37140071 0.460508492,3.8358189 1.11609778,3.83073454 C1.12616151,3.83065649 1.13622582,3.83070642 1.14628828,3.83088433 Z" id="Rectangle-Copy-2" transform="translate(5.198985, 5.120000) rotate(45.000000) translate(-5.198985, -5.120000) "></path>
                                    <path d="M1.16517473,9.73385421 L9.25168181,9.59088433 C9.90718836,9.57929494 10.4479765,10.1012929 10.4595659,10.7567995 C10.4597438,10.766862 10.4597937,10.7769263 10.4597157,10.78699 C10.4544619,11.4644205 9.91014034,12.0141703 9.23279536,12.0261458 L1.14628828,12.1691157 C0.490781723,12.1807051 -0.0500063929,11.6587071 -0.0615957845,11.0032005 C-0.0617736894,10.993138 -0.0618236237,10.9830737 -0.0617455753,10.97301 C-0.0564918246,10.2955795 0.487829742,9.74582971 1.16517473,9.73385421 Z" id="Rectangle-Copy-3" transform="translate(5.198985, 10.880000) rotate(-45.000000) translate(-5.198985, -10.880000) "></path>
                                </g>
                            </g>
                        </g>
                    </g>
                    <g id="Group-20" transform="translate(109.000000, 120.000000)" fill="#B1B4C5">
                        <g id="Group-19" transform="translate(15.000000, 11.000000)">
                            <g id="Group-15" transform="translate(44.000000, 8.000000) scale(-1, 1) translate(-44.000000, -8.000000) ">
                                <rect id="Rectangle" x="0.692307692" y="6.66666667" width="85" height="2.66666667" rx="1.33333333"></rect>
                                <g id="Group-12" transform="translate(77.192308, 0.000000)">
                                    <g id="Group-14">
                                        <path d="M1.14628828,3.83088433 L9.23279536,3.97385421 C9.91014034,3.98582971 10.4544619,4.53557953 10.4597157,5.21301 C10.4648,5.86859929 9.93746159,6.4041811 9.28187231,6.40926546 C9.27180858,6.40934351 9.26174426,6.40929358 9.25168181,6.40911567 L1.16517473,6.26614579 C0.487829742,6.25417029 -0.0564918246,5.70442047 -0.0617455753,5.02699 C-0.0668299387,4.37140071 0.460508492,3.8358189 1.11609778,3.83073454 C1.12616151,3.83065649 1.13622582,3.83070642 1.14628828,3.83088433 Z" id="Rectangle-Copy-2" transform="translate(5.198985, 5.120000) rotate(45.000000) translate(-5.198985, -5.120000) "></path>
                                        <path d="M1.16517473,9.73385421 L9.25168181,9.59088433 C9.90718836,9.57929494 10.4479765,10.1012929 10.4595659,10.7567995 C10.4597438,10.766862 10.4597937,10.7769263 10.4597157,10.78699 C10.4544619,11.4644205 9.91014034,12.0141703 9.23279536,12.0261458 L1.14628828,12.1691157 C0.490781723,12.1807051 -0.0500063929,11.6587071 -0.0615957845,11.0032005 C-0.0617736894,10.993138 -0.0618236237,10.9830737 -0.0617455753,10.97301 C-0.0564918246,10.2955795 0.487829742,9.74582971 1.16517473,9.73385421 Z" id="Rectangle-Copy-3" transform="translate(5.198985, 10.880000) rotate(-45.000000) translate(-5.198985, -10.880000) "></path>
                                    </g>
                                </g>
                            </g>
                            <text id="BEATS" font-family="BarlowSemiCondensed-Bold, Barlow Semi Condensed" font-size="6" font-style="condensed" font-weight="bold" line-spacing="13">
                                <tspan x="36" y="14">BEATS</tspan>
                            </text>
                        </g>
                        <g id="Group-19-Copy" transform="translate(41.000000, 79.000000) rotate(40.000000) translate(-41.000000, -79.000000) translate(-3.000000, 68.000000)">
                            <g id="Group-15" transform="translate(0.000000, 6.000000)">
                                <rect id="Rectangle" x="0.692307692" y="6.66666667" width="85" height="2.66666667" rx="1.33333333"></rect>
                                <g id="Group-12" transform="translate(77.192308, 0.000000)">
                                    <g id="Group-14">
                                        <path d="M1.14628828,3.83088433 L9.23279536,3.97385421 C9.91014034,3.98582971 10.4544619,4.53557953 10.4597157,5.21301 C10.4648,5.86859929 9.93746159,6.4041811 9.28187231,6.40926546 C9.27180858,6.40934351 9.26174426,6.40929358 9.25168181,6.40911567 L1.16517473,6.26614579 C0.487829742,6.25417029 -0.0564918246,5.70442047 -0.0617455753,5.02699 C-0.0668299387,4.37140071 0.460508492,3.8358189 1.11609778,3.83073454 C1.12616151,3.83065649 1.13622582,3.83070642 1.14628828,3.83088433 Z" id="Rectangle-Copy-2" transform="translate(5.198985, 5.120000) rotate(45.000000) translate(-5.198985, -5.120000) "></path>
                                        <path d="M1.16517473,9.73385421 L9.25168181,9.59088433 C9.90718836,9.57929494 10.4479765,10.1012929 10.4595659,10.7567995 C10.4597438,10.766862 10.4597937,10.7769263 10.4597157,10.78699 C10.4544619,11.4644205 9.91014034,12.0141703 9.23279536,12.0261458 L1.14628828,12.1691157 C0.490781723,12.1807051 -0.0500063929,11.6587071 -0.0615957845,11.0032005 C-0.0617736894,10.993138 -0.0618236237,10.9830737 -0.0617455753,10.97301 C-0.0564918246,10.2955795 0.487829742,9.74582971 1.16517473,9.73385421 Z" id="Rectangle-Copy-3" transform="translate(5.198985, 10.880000) rotate(-45.000000) translate(-5.198985, -10.880000) "></path>
                                    </g>
                                </g>
                            </g>
                            <text id="BEATS" font-family="BarlowSemiCondensed-Bold, Barlow Semi Condensed" font-size="6" font-style="condensed" font-weight="bold" line-spacing="13">
                                <tspan x="36" y="6">BEATS</tspan>
                            </text>
                        </g>
                        <g id="Group-19-Copy-4" transform="translate(77.000000, 79.000000) rotate(-40.000000) translate(-77.000000, -79.000000) translate(33.000000, 68.000000)">
                            <g id="Group-15" transform="translate(0.000000, 6.000000)">
                                <rect id="Rectangle" x="0.692307692" y="6.66666667" width="85" height="2.66666667" rx="1.33333333"></rect>
                                <g id="Group-12" transform="translate(77.192308, 0.000000)">
                                    <g id="Group-14">
                                        <path d="M1.14628828,3.83088433 L9.23279536,3.97385421 C9.91014034,3.98582971 10.4544619,4.53557953 10.4597157,5.21301 C10.4648,5.86859929 9.93746159,6.4041811 9.28187231,6.40926546 C9.27180858,6.40934351 9.26174426,6.40929358 9.25168181,6.40911567 L1.16517473,6.26614579 C0.487829742,6.25417029 -0.0564918246,5.70442047 -0.0617455753,5.02699 C-0.0668299387,4.37140071 0.460508492,3.8358189 1.11609778,3.83073454 C1.12616151,3.83065649 1.13622582,3.83070642 1.14628828,3.83088433 Z" id="Rectangle-Copy-2" transform="translate(5.198985, 5.120000) rotate(45.000000) translate(-5.198985, -5.120000) "></path>
                                        <path d="M1.16517473,9.73385421 L9.25168181,9.59088433 C9.90718836,9.57929494 10.4479765,10.1012929 10.4595659,10.7567995 C10.4597438,10.766862 10.4597937,10.7769263 10.4597157,10.78699 C10.4544619,11.4644205 9.91014034,12.0141703 9.23279536,12.0261458 L1.14628828,12.1691157 C0.490781723,12.1807051 -0.0500063929,11.6587071 -0.0615957845,11.0032005 C-0.0617736894,10.993138 -0.0618236237,10.9830737 -0.0617455753,10.97301 C-0.0564918246,10.2955795 0.487829742,9.74582971 1.16517473,9.73385421 Z" id="Rectangle-Copy-3" transform="translate(5.198985, 10.880000) rotate(-45.000000) translate(-5.198985, -10.880000) "></path>
                                    </g>
                                </g>
                            </g>
                            <text id="BEATS" font-family="BarlowSemiCondensed-Bold, Barlow Semi Condensed" font-size="6" font-style="condensed" font-weight="bold" line-spacing="13">
                                <tspan x="36" y="6">BEATS</tspan>
                            </text>
                        </g>
                        <g id="Group-19-Copy-2" transform="translate(88.000000, 46.000000) rotate(-110.000000) translate(-88.000000, -46.000000) translate(44.000000, 35.000000)">
                            <g id="Group-15" transform="translate(0.000000, 6.000000)">
                                <rect id="Rectangle" x="0.692307692" y="6.66666667" width="85" height="2.66666667" rx="1.33333333"></rect>
                                <g id="Group-12" transform="translate(77.192308, 0.000000)">
                                    <g id="Group-14">
                                        <path d="M1.14628828,3.83088433 L9.23279536,3.97385421 C9.91014034,3.98582971 10.4544619,4.53557953 10.4597157,5.21301 C10.4648,5.86859929 9.93746159,6.4041811 9.28187231,6.40926546 C9.27180858,6.40934351 9.26174426,6.40929358 9.25168181,6.40911567 L1.16517473,6.26614579 C0.487829742,6.25417029 -0.0564918246,5.70442047 -0.0617455753,5.02699 C-0.0668299387,4.37140071 0.460508492,3.8358189 1.11609778,3.83073454 C1.12616151,3.83065649 1.13622582,3.83070642 1.14628828,3.83088433 Z" id="Rectangle-Copy-2" transform="translate(5.198985, 5.120000) rotate(45.000000) translate(-5.198985, -5.120000) "></path>
                                        <path d="M1.16517473,9.73385421 L9.25168181,9.59088433 C9.90718836,9.57929494 10.4479765,10.1012929 10.4595659,10.7567995 C10.4597438,10.766862 10.4597937,10.7769263 10.4597157,10.78699 C10.4544619,11.4644205 9.91014034,12.0141703 9.23279536,12.0261458 L1.14628828,12.1691157 C0.490781723,12.1807051 -0.0500063929,11.6587071 -0.0615957845,11.0032005 C-0.0617736894,10.993138 -0.0618236237,10.9830737 -0.0617455753,10.97301 C-0.0564918246,10.2955795 0.487829742,9.74582971 1.16517473,9.73385421 Z" id="Rectangle-Copy-3" transform="translate(5.198985, 10.880000) rotate(-45.000000) translate(-5.198985, -10.880000) "></path>
                                    </g>
                                </g>
                            </g>
                            <text id="BEATS" font-family="BarlowSemiCondensed-Bold, Barlow Semi Condensed" font-size="6" font-style="condensed" font-weight="bold" line-spacing="13">
                                <tspan x="36" y="6">BEATS</tspan>
                            </text>
                        </g>
                        <g id="Group-19-Copy-3" transform="translate(30.000000, 46.000000) rotate(110.000000) translate(-30.000000, -46.000000) translate(-14.000000, 35.000000)">
                            <g id="Group-15" transform="translate(0.000000, 6.000000)">
                                <rect id="Rectangle" x="0.692307692" y="6.66666667" width="85" height="2.66666667" rx="1.33333333"></rect>
                                <g id="Group-12" transform="translate(77.192308, 0.000000)">
                                    <g id="Group-14">
                                        <path d="M1.14628828,3.83088433 L9.23279536,3.97385421 C9.91014034,3.98582971 10.4544619,4.53557953 10.4597157,5.21301 C10.4648,5.86859929 9.93746159,6.4041811 9.28187231,6.40926546 C9.27180858,6.40934351 9.26174426,6.40929358 9.25168181,6.40911567 L1.16517473,6.26614579 C0.487829742,6.25417029 -0.0564918246,5.70442047 -0.0617455753,5.02699 C-0.0668299387,4.37140071 0.460508492,3.8358189 1.11609778,3.83073454 C1.12616151,3.83065649 1.13622582,3.83070642 1.14628828,3.83088433 Z" id="Rectangle-Copy-2" transform="translate(5.198985, 5.120000) rotate(45.000000) translate(-5.198985, -5.120000) "></path>
                                        <path d="M1.16517473,9.73385421 L9.25168181,9.59088433 C9.90718836,9.57929494 10.4479765,10.1012929 10.4595659,10.7567995 C10.4597438,10.766862 10.4597937,10.7769263 10.4597157,10.78699 C10.4544619,11.4644205 9.91014034,12.0141703 9.23279536,12.0261458 L1.14628828,12.1691157 C0.490781723,12.1807051 -0.0500063929,11.6587071 -0.0615957845,11.0032005 C-0.0617736894,10.993138 -0.0618236237,10.9830737 -0.0617455753,10.97301 C-0.0564918246,10.2955795 0.487829742,9.74582971 1.16517473,9.73385421 Z" id="Rectangle-Copy-3" transform="translate(5.198985, 10.880000) rotate(-45.000000) translate(-5.198985, -10.880000) "></path>
                                    </g>
                                </g>
                            </g>
                            <text id="BEATS" font-family="BarlowSemiCondensed-Bold, Barlow Semi Condensed" font-size="6" font-style="condensed" font-weight="bold" line-spacing="13">
                                <tspan x="36" y="6">BEATS</tspan>
                            </text>
                        </g>
                    </g>
                    <text id="BEATS" font-family="BarlowSemiCondensed-Bold, Barlow Semi Condensed" font-size="11" font-style="condensed" font-weight="bold" line-spacing="13" fill="#B1B4C5">
                        <tspan x="252" y="64">BEATS</tspan>
                    </text>
                    <text id="BEATS-Copy-3" font-family="BarlowSemiCondensed-Bold, Barlow Semi Condensed" font-size="11" font-style="condensed" font-weight="bold" line-spacing="13" fill="#B1B4C5">
                        <tspan x="55" y="64">BEATS</tspan>
                    </text>
                    <text id="BEATS-Copy-4" font-family="BarlowSemiCondensed-Bold, Barlow Semi Condensed" font-size="11" font-style="condensed" font-weight="bold" line-spacing="13" fill="#B1B4C5">
                        <tspan x="305" y="225">BEATS</tspan>
                    </text>
                    <text id="BEATS-Copy-5" font-family="BarlowSemiCondensed-Bold, Barlow Semi Condensed" font-size="11" font-style="condensed" font-weight="bold" line-spacing="13" fill="#B1B4C5">
                        <tspan x="1" y="225">BEATS</tspan>
                    </text>
                    <text id="BEATS-Copy-6" font-family="BarlowSemiCondensed-Bold, Barlow Semi Condensed" font-size="11" font-style="condensed" font-weight="bold" line-spacing="13" fill="#B1B4C5">
                        <tspan x="154" y="328">BEATS</tspan>
                    </text>
                </g>
            </g>
        </g>
    </g>
</svg>