<?xml version="1.0" encoding="UTF-8"?>
<svg width="64px" height="62px" viewBox="0 0 64 62" version="1.1" xmlns="http://www.w3.org/2000/svg" xmlns:xlink="http://www.w3.org/1999/xlink">
    <title>lizard</title>
    <g id="Designs" stroke="none" stroke-width="1" fill="none" fill-rule="evenodd">
        <g id="Desktop---Bonus---Step-1" transform="translate(-552.000000, -605.000000)" fill="#3B4262" fill-rule="nonzero">
            <g id="Group-18" transform="translate(447.000000, 246.000000)">
                <g id="Group-8-Copy-3" transform="translate(65.000000, 315.000000)">
                    <g id="Group-6">
                        <g id="Group-5" transform="translate(16.843434, 16.768473)">
                            <g id="lizard" transform="translate(24.898990, 28.433498)">
                                <path d="M48.7412295,1.89414931 C51.9700199,-0.105637226 55.0647923,-0.538816585 57.4554875,0.675016355 C62.8137605,3.39534653 62.0381041,13.5201869 59.8452816,17.9074368 C58.6074499,20.3838369 56.4134688,22.1935985 53.3176665,23.2940628 C52.1187209,27.092886 50.434236,30.3580571 48.2840599,33.0581227 C49.6924,34.237219 51.4858213,34.8952325 53.3625589,34.8952325 L53.3625589,34.8952325 L53.4522247,34.8952325 L56.4733899,31.9127977 C57.2339593,31.1621979 58.4668959,31.1619468 59.227211,31.9127977 C59.9876533,32.663523 59.9876533,33.8808305 59.227211,34.6314302 L59.227211,34.6314302 L58.959867,34.8953581 L59.5678138,34.8953581 C60.6432947,34.8953581 61.5151515,35.7560742 61.5151515,36.8176869 C61.5151515,37.8792996 60.6432947,38.7400158 59.5680682,38.7398902 L59.5680682,38.7398902 L58.9601214,38.7398902 L59.2274654,39.0039436 C59.9879076,39.7546689 59.9879076,40.9719764 59.2274654,41.7225761 C58.8473078,42.0980016 58.3487405,42.2857143 57.8505548,42.2857143 C57.3521147,42.2857143 56.853929,42.0981271 56.473517,41.7225761 L56.473517,41.7225761 L53.4523519,38.7400158 L53.3626861,38.7400158 C50.4983727,38.7400158 47.7644128,37.7147174 45.6384156,35.8830227 C45.2233504,36.2603869 44.7948564,36.621457 44.3537823,36.9664237 C40.6219522,39.8851004 36.059761,41.5830597 30.7270469,42.0477948 C31.3995301,44.0710506 31.5296836,46.262487 31.0699275,48.4001747 L31.0699275,48.4001747 L31.0507252,48.4895596 L33.3754882,52.150715 C33.9607754,53.0721571 33.6968073,54.2991921 32.7863605,54.8914645 C32.4583845,55.1045634 32.0912358,55.206514 31.7285677,55.206514 C31.0837532,55.206514 30.4523803,54.8847283 30.0779348,54.2949172 L30.0779348,54.2949172 L29.8722137,53.9709292 L29.7420219,54.5760264 C29.5423175,55.5042048 28.7305707,56.137931 27.8287009,56.137931 C27.6905721,56.137931 27.5505231,56.1230335 27.41009,56.0922022 C26.3524252,55.8592832 25.6816235,54.8028568 25.9116676,53.7324398 L25.9116676,53.7324398 L26.0418594,53.1273426 L25.7218204,53.3355188 C24.8111176,53.9275321 23.598554,53.6608023 23.0133947,52.7391011 C22.4281075,51.8176589 22.6920756,50.5906239 23.6026505,49.9983515 L23.6026505,49.9983515 L27.2204989,47.6458435 L27.2397012,47.5565881 C27.6362896,45.7120592 27.3747833,43.8083102 26.527074,42.1616748 C24.9830506,42.119942 23.3837182,41.9863752 21.7304925,41.7624211 C17.0457855,41.1279704 14.3889853,43.1947181 13.6861956,43.8432591 C8.16841426,48.9355404 7.10000392,57.9354847 7.08970475,58.0258435 C6.99714094,58.8486386 6.4044236,59.5267822 5.60379172,59.7254681 C5.44672935,59.7642487 5.28799336,59.7832512 5.13093099,59.7832512 C4.48826267,59.7832512 3.87314463,59.4666722 3.50070082,58.9162462 C3.41277164,58.7862019 1.33607237,55.682073 0.425110618,51.3011573 C-0.811948665,45.3516954 0.663021489,39.8941008 4.69077013,35.5180974 C7.02649358,32.9801653 10.0091338,31.0513473 13.3159404,29.9405415 C13.3537379,29.9278435 13.3915797,29.9152511 13.4294651,29.9027643 L13.0223043,30.0086767 C11.9800331,29.5232451 10.8304073,29.2620713 9.64708166,29.2620713 L9.64708166,29.2620713 L9.55708764,29.2620713 L6.52486352,32.2447259 C6.14318675,32.6201631 5.64292211,32.8078818 5.14278512,32.8078818 C4.64264813,32.8078818 4.14251114,32.6201631 3.76083436,32.2447259 C2.99773612,31.4939769 2.99773612,30.2766309 3.76083436,29.5260075 L3.76083436,29.5260075 L4.02928462,29.2619457 L3.41898473,29.2619457 C2.33969472,29.2619457 1.46464646,28.4015791 1.46464646,27.3399329 C1.46464646,26.2782866 2.33969472,25.4175433 3.41898473,25.4175433 L3.41898473,25.4175433 L4.02915696,25.4175433 L3.76083436,25.1536071 C2.99773612,24.4028581 2.99773612,23.1855122 3.76083436,22.4348888 C4.52406026,21.6842653 5.76163763,21.6842653 6.52473587,22.4348888 L6.52473587,22.4348888 L9.55695999,25.4174178 L9.64695401,25.4174178 C12.9485219,25.4174178 16.0775056,26.770122 18.3080808,29.143413 L18.0909903,28.9203447 C19.857135,28.7435387 21.6589262,28.773598 23.4433736,29.0154948 C28.3885109,29.6851608 32.4335998,28.9965308 35.5558619,26.9634567 C33.8164655,24.8200662 32.8467868,22.1036934 32.8467868,19.2621328 L32.8467868,19.2621328 L32.8467868,19.1705551 L29.8572639,16.0852288 C29.1048178,15.3085714 29.1048178,14.0492148 29.8572639,13.2726874 C30.60971,12.4961599 31.8298079,12.4961599 32.5821281,13.2726874 L32.5821281,13.2726874 L32.8466609,13.545732 L32.8466609,12.9246919 C32.8466609,11.8264082 33.7093501,10.9359606 34.7733962,10.9359606 C35.8374423,10.9359606 36.7001314,11.8264082 36.7001314,12.9246919 L36.7001314,12.9246919 L36.7001314,13.545732 L36.9646643,13.2726874 C37.7171104,12.4961599 38.9372082,12.4961599 39.6895285,13.2726874 C40.8360052,14.4560539 40.009057,15.7555489 39.6896544,16.0853587 C39.3701259,16.4151686 36.7003831,19.1708149 36.7003831,19.1708149 L36.7003831,19.1708149 L36.7003831,19.2623926 C36.7003831,21.140052 37.3345665,22.9351808 38.4713664,24.3602853 C39.8834533,22.6736787 40.9928241,20.5523429 41.7964979,17.9996053 C41.2086726,16.3750858 40.2953936,12.5271449 42.6244226,8.16329266 C43.844102,5.8779516 46.187936,3.47575166 48.7412295,1.89414931 Z" id="Combined-Shape"></path>
                            </g>
                        </g>
                    </g>
                </g>
            </g>
        </g>
    </g>
</svg>