<?xml version="1.0" encoding="UTF-8"?>
<svg width="162px" height="99px" viewBox="0 0 162 99" version="1.1" xmlns="http://www.w3.org/2000/svg" xmlns:xlink="http://www.w3.org/1999/xlink">
    <title>ROCKPAPERSCISSORS</title>
    <defs>
        <path d="M39.28,56 C39.4133333,56 39.5266667,55.9533333 39.62,55.86 C39.7133333,55.7666667 39.76,55.6533333 39.76,55.52 L39.76,55.52 L39.76,44.6 C39.76,44.4666667 39.8266667,44.4 39.96,44.4 L39.96,44.4 L42.48,44.4 C42.56,44.4 42.6266667,44.4533333 42.68,44.56 L42.68,44.56 L46.72,55.6 C46.8,55.8666667 46.9866667,56 47.28,56 L47.28,56 L52.16,56 C52.4533333,56 52.6,55.88 52.6,55.64 C52.6,55.56 52.5866667,55.4933333 52.56,55.44 L52.56,55.44 L48,43.96 C47.9466667,43.8266667 47.9866667,43.7333333 48.12,43.68 C49.48,43.0666667 50.5333333,42.1333333 51.28,40.88 C52.0266667,39.6266667 52.4,38.1466667 52.4,36.44 C52.4,34.7866667 52.0666667,33.32 51.4,32.04 C50.7333333,30.76 49.7866667,29.7666667 48.56,29.06 C47.3333333,28.3533333 45.9333333,28 44.36,28 L44.36,28 L34.6,28 C34.4666667,28 34.3533333,28.0466667 34.26,28.14 C34.1666667,28.2333333 34.12,28.3466667 34.12,28.48 L34.12,28.48 L34.12,55.52 C34.12,55.6533333 34.1666667,55.7666667 34.26,55.86 C34.3533333,55.9533333 34.4666667,56 34.6,56 L34.6,56 L39.28,56 Z M43.44,40.08 L39.96,40.08 C39.8266667,40.08 39.76,40.0133333 39.76,39.88 L39.76,39.88 L39.76,33.04 C39.76,32.9066667 39.8266667,32.84 39.96,32.84 L39.96,32.84 L43.44,32.84 C44.4266667,32.84 45.2266667,33.1666667 45.84,33.82 C46.4533333,34.4733333 46.76,35.36 46.76,36.48 C46.76,37.5733333 46.4533333,38.4466667 45.84,39.1 C45.2266667,39.7533333 44.4266667,40.08 43.44,40.08 L43.44,40.08 Z M64.64,56.36 C66.48,56.36 68.1066667,55.9866667 69.52,55.24 C70.9333333,54.4933333 72.0266667,53.44 72.8,52.08 C73.5733333,50.72 73.96,49.1333333 73.96,47.32 L73.96,47.32 L73.96,36.68 C73.96,34.8933333 73.5733333,33.32 72.8,31.96 C72.0266667,30.6 70.9333333,29.5466667 69.52,28.8 C68.1066667,28.0533333 66.48,27.68 64.64,27.68 C62.8,27.68 61.18,28.0533333 59.78,28.8 C58.38,29.5466667 57.2933333,30.6 56.52,31.96 C55.7466667,33.32 55.36,34.8933333 55.36,36.68 L55.36,36.68 L55.36,47.32 C55.36,49.1333333 55.7466667,50.72 56.52,52.08 C57.2933333,53.44 58.38,54.4933333 59.78,55.24 C61.18,55.9866667 62.8,56.36 64.64,56.36 Z M64.64,51.52 C63.5466667,51.52 62.6666667,51.1533333 62,50.42 C61.3333333,49.6866667 61,48.7333333 61,47.56 L61,47.56 L61,36.52 C61,35.32 61.3333333,34.3533333 62,33.62 C62.6666667,32.8866667 63.5466667,32.52 64.64,32.52 C65.76,32.52 66.6533333,32.8866667 67.32,33.62 C67.9866667,34.3533333 68.32,35.32 68.32,36.52 L68.32,36.52 L68.32,47.56 C68.32,48.7333333 67.9866667,49.6866667 67.32,50.42 C66.6533333,51.1533333 65.76,51.52 64.64,51.52 Z M86.4,56.32 C88.2133333,56.32 89.8133333,55.9666667 91.2,55.26 C92.5866667,54.5533333 93.66,53.5466667 94.42,52.24 C95.18,50.9333333 95.56,49.4266667 95.56,47.72 L95.56,47.72 L95.56,47.6 C95.56,47.4666667 95.5133333,47.3533333 95.42,47.26 C95.3266667,47.1666667 95.2133333,47.12 95.08,47.12 L95.08,47.12 L90.4,46.92 C90.08,46.92 89.92,47.0666667 89.92,47.36 L89.92,47.36 L89.92,47.88 C89.92,48.9733333 89.6,49.8466667 88.96,50.5 C88.32,51.1533333 87.4666667,51.48 86.4,51.48 C85.3333333,51.48 84.48,51.1533333 83.84,50.5 C83.2,49.8466667 82.88,48.9733333 82.88,47.88 L82.88,47.88 L82.88,36.16 C82.88,35.0666667 83.2,34.1866667 83.84,33.52 C84.48,32.8533333 85.3333333,32.52 86.4,32.52 C87.4666667,32.52 88.32,32.8533333 88.96,33.52 C89.6,34.1866667 89.92,35.0666667 89.92,36.16 L89.92,36.16 L89.92,36.68 C89.92,36.9733333 90.08,37.12 90.4,37.12 L90.4,37.12 L95.08,36.92 C95.2133333,36.92 95.3266667,36.8666667 95.42,36.76 C95.5133333,36.6533333 95.56,36.5333333 95.56,36.4 L95.56,36.4 L95.56,36.2 C95.56,34.4933333 95.18,33 94.42,31.72 C93.66,30.44 92.5866667,29.4466667 91.2,28.74 C89.8133333,28.0333333 88.2133333,27.68 86.4,27.68 C84.5866667,27.68 82.9866667,28.04 81.6,28.76 C80.2133333,29.48 79.14,30.5 78.38,31.82 C77.62,33.14 77.24,34.6666667 77.24,36.4 L77.24,36.4 L77.24,47.52 C77.24,49.28 77.62,50.8266667 78.38,52.16 C79.14,53.4933333 80.2133333,54.52 81.6,55.24 C82.9866667,55.96 84.5866667,56.32 86.4,56.32 Z M104.32,56 C104.453333,56 104.566667,55.9533333 104.66,55.86 C104.753333,55.7666667 104.8,55.6533333 104.8,55.52 L104.8,55.52 L104.8,47.52 C104.8,47.4666667 104.826667,47.3866667 104.88,47.28 L104.88,47.28 L106.68,44.68 C106.733333,44.6 106.786667,44.56 106.84,44.56 C106.893333,44.56 106.933333,44.6 106.96,44.68 L106.96,44.68 L112.64,55.64 C112.773333,55.88 112.96,56 113.2,56 L113.2,56 L118.32,56 C118.613333,56 118.76,55.8933333 118.76,55.68 C118.76,55.6266667 118.733333,55.5466667 118.68,55.44 L118.68,55.44 L110.84,40.32 C110.813333,40.2133333 110.813333,40.12 110.84,40.04 L110.84,40.04 L118.24,28.56 C118.346667,28.4 118.366667,28.2666667 118.3,28.16 C118.233333,28.0533333 118.106667,28 117.92,28 L117.92,28 L112.76,28 C112.52,28 112.333333,28.1066667 112.2,28.32 L112.2,28.32 L105.04,39.2 C105.013333,39.28 104.966667,39.3066667 104.9,39.28 C104.833333,39.2533333 104.8,39.2 104.8,39.12 L104.8,39.12 L104.8,28.48 C104.8,28.3466667 104.753333,28.2333333 104.66,28.14 C104.566667,28.0466667 104.453333,28 104.32,28 L104.32,28 L99.64,28 C99.5066667,28 99.3933333,28.0466667 99.3,28.14 C99.2066667,28.2333333 99.16,28.3466667 99.16,28.48 L99.16,28.48 L99.16,55.52 C99.16,55.6533333 99.2066667,55.7666667 99.3,55.86 C99.3933333,55.9533333 99.5066667,56 99.64,56 L99.64,56 L104.32,56 Z M39.16,88 C39.2933333,88 39.4066667,87.9533333 39.5,87.86 C39.5933333,87.7666667 39.64,87.6533333 39.64,87.52 L39.64,87.52 L39.64,77.12 C39.64,76.9866667 39.7066667,76.92 39.84,76.92 L39.84,76.92 L44.16,76.92 C45.76,76.92 47.18,76.5733333 48.42,75.88 C49.66,75.1866667 50.62,74.2066667 51.3,72.94 C51.98,71.6733333 52.32,70.2133333 52.32,68.56 C52.32,66.88 51.98,65.3866667 51.3,64.08 C50.62,62.7733333 49.66,61.76 48.42,61.04 C47.18,60.32 45.76,59.96 44.16,59.96 L44.16,59.96 L34.48,59.96 C34.3466667,59.96 34.2333333,60.0066667 34.14,60.1 C34.0466667,60.1933333 34,60.3066667 34,60.44 L34,60.44 L34,87.52 C34,87.6533333 34.0466667,87.7666667 34.14,87.86 C34.2333333,87.9533333 34.3466667,88 34.48,88 L34.48,88 L39.16,88 Z M43.24,72.44 L39.84,72.44 C39.7066667,72.44 39.64,72.3733333 39.64,72.24 L39.64,72.24 L39.64,65.04 C39.64,64.9066667 39.7066667,64.84 39.84,64.84 L39.84,64.84 L43.24,64.84 C44.28,64.84 45.1133333,65.1866667 45.74,65.88 C46.3666667,66.5733333 46.68,67.5066667 46.68,68.68 C46.68,69.8266667 46.3666667,70.74 45.74,71.42 C45.1133333,72.1 44.28,72.44 43.24,72.44 L43.24,72.44 Z M59.36,88 C59.6266667,88 59.8,87.8666667 59.88,87.6 L59.88,87.6 L60.8,83.68 C60.8266667,83.5733333 60.8933333,83.52 61,83.52 L61,83.52 L68.48,83.52 C68.5866667,83.52 68.6533333,83.5733333 68.68,83.68 L68.68,83.68 L69.6,87.6 C69.68,87.8666667 69.8666667,88 70.16,88 L70.16,88 L75.04,88 C75.3333333,88 75.48,87.88 75.48,87.64 L75.48,87.64 L75.44,87.48 L68.24,60.4 C68.16,60.1333333 67.9733333,60 67.68,60 L67.68,60 L61.88,60 C61.5866667,60 61.4,60.1333333 61.32,60.4 L61.32,60.4 L54.12,87.48 C54.04,87.8266667 54.1733333,88 54.52,88 L54.52,88 L59.36,88 Z M67.36,79.16 L62.08,79.16 C62.0266667,79.16 61.9733333,79.14 61.92,79.1 C61.8666667,79.06 61.8533333,79 61.88,78.92 L61.88,78.92 L64.56,67.32 C64.5866667,67.2133333 64.6266667,67.16 64.68,67.16 C64.7333333,67.16 64.7733333,67.2133333 64.8,67.32 L64.8,67.32 L67.56,78.92 C67.5866667,79 67.5733333,79.06 67.52,79.1 C67.4666667,79.14 67.4133333,79.16 67.36,79.16 L67.36,79.16 Z M83.48,88 C83.6133333,88 83.7266667,87.9533333 83.82,87.86 C83.9133333,87.7666667 83.96,87.6533333 83.96,87.52 L83.96,87.52 L83.96,77.12 C83.96,76.9866667 84.0266667,76.92 84.16,76.92 L84.16,76.92 L88.48,76.92 C90.08,76.92 91.5,76.5733333 92.74,75.88 C93.98,75.1866667 94.94,74.2066667 95.62,72.94 C96.3,71.6733333 96.64,70.2133333 96.64,68.56 C96.64,66.88 96.3,65.3866667 95.62,64.08 C94.94,62.7733333 93.98,61.76 92.74,61.04 C91.5,60.32 90.08,59.96 88.48,59.96 L88.48,59.96 L78.8,59.96 C78.6666667,59.96 78.5533333,60.0066667 78.46,60.1 C78.3666667,60.1933333 78.32,60.3066667 78.32,60.44 L78.32,60.44 L78.32,87.52 C78.32,87.6533333 78.3666667,87.7666667 78.46,87.86 C78.5533333,87.9533333 78.6666667,88 78.8,88 L78.8,88 L83.48,88 Z M87.56,72.44 L84.16,72.44 C84.0266667,72.44 83.96,72.3733333 83.96,72.24 L83.96,72.24 L83.96,65.04 C83.96,64.9066667 84.0266667,64.84 84.16,64.84 L84.16,64.84 L87.56,64.84 C88.6,64.84 89.4333333,65.1866667 90.06,65.88 C90.6866667,66.5733333 91,67.5066667 91,68.68 C91,69.8266667 90.6866667,70.74 90.06,71.42 C89.4333333,72.1 88.6,72.44 87.56,72.44 L87.56,72.44 Z M116.24,88 C116.373333,88 116.486667,87.9533333 116.58,87.86 C116.673333,87.7666667 116.72,87.6533333 116.72,87.52 L116.72,87.52 L116.72,83.64 C116.72,83.5066667 116.673333,83.3933333 116.58,83.3 C116.486667,83.2066667 116.373333,83.16 116.24,83.16 L116.24,83.16 L105.52,83.16 C105.386667,83.16 105.32,83.0933333 105.32,82.96 L105.32,82.96 L105.32,76.52 C105.32,76.3866667 105.386667,76.32 105.52,76.32 L105.52,76.32 L112.2,76.32 C112.333333,76.32 112.446667,76.2733333 112.54,76.18 C112.633333,76.0866667 112.68,75.9733333 112.68,75.84 L112.68,75.84 L112.68,71.96 C112.68,71.8266667 112.633333,71.7133333 112.54,71.62 C112.446667,71.5266667 112.333333,71.48 112.2,71.48 L112.2,71.48 L105.52,71.48 C105.386667,71.48 105.32,71.4133333 105.32,71.28 L105.32,71.28 L105.32,65.04 C105.32,64.9066667 105.386667,64.84 105.52,64.84 L105.52,64.84 L116.24,64.84 C116.373333,64.84 116.486667,64.7933333 116.58,64.7 C116.673333,64.6066667 116.72,64.4933333 116.72,64.36 L116.72,64.36 L116.72,60.48 C116.72,60.3466667 116.673333,60.2333333 116.58,60.14 C116.486667,60.0466667 116.373333,60 116.24,60 L116.24,60 L100.16,60 C100.026667,60 99.9133333,60.0466667 99.82,60.14 C99.7266667,60.2333333 99.68,60.3466667 99.68,60.48 L99.68,60.48 L99.68,87.52 C99.68,87.6533333 99.7266667,87.7666667 99.82,87.86 C99.9133333,87.9533333 100.026667,88 100.16,88 L100.16,88 L116.24,88 Z M125.28,88 C125.413333,88 125.526667,87.9533333 125.62,87.86 C125.713333,87.7666667 125.76,87.6533333 125.76,87.52 L125.76,87.52 L125.76,76.6 C125.76,76.4666667 125.826667,76.4 125.96,76.4 L125.96,76.4 L128.48,76.4 C128.56,76.4 128.626667,76.4533333 128.68,76.56 L128.68,76.56 L132.72,87.6 C132.8,87.8666667 132.986667,88 133.28,88 L133.28,88 L138.16,88 C138.453333,88 138.6,87.88 138.6,87.64 C138.6,87.56 138.586667,87.4933333 138.56,87.44 L138.56,87.44 L134,75.96 C133.946667,75.8266667 133.986667,75.7333333 134.12,75.68 C135.48,75.0666667 136.533333,74.1333333 137.28,72.88 C138.026667,71.6266667 138.4,70.1466667 138.4,68.44 C138.4,66.7866667 138.066667,65.32 137.4,64.04 C136.733333,62.76 135.786667,61.7666667 134.56,61.06 C133.333333,60.3533333 131.933333,60 130.36,60 L130.36,60 L120.6,60 C120.466667,60 120.353333,60.0466667 120.26,60.14 C120.166667,60.2333333 120.12,60.3466667 120.12,60.48 L120.12,60.48 L120.12,87.52 C120.12,87.6533333 120.166667,87.7666667 120.26,87.86 C120.353333,87.9533333 120.466667,88 120.6,88 L120.6,88 L125.28,88 Z M129.44,72.08 L125.96,72.08 C125.826667,72.08 125.76,72.0133333 125.76,71.88 L125.76,71.88 L125.76,65.04 C125.76,64.9066667 125.826667,64.84 125.96,64.84 L125.96,64.84 L129.44,64.84 C130.426667,64.84 131.226667,65.1666667 131.84,65.82 C132.453333,66.4733333 132.76,67.36 132.76,68.48 C132.76,69.5733333 132.453333,70.4466667 131.84,71.1 C131.226667,71.7533333 130.426667,72.08 129.44,72.08 L129.44,72.08 Z M42.52,120.32 C45.24,120.32 47.42,119.606667 49.06,118.18 C50.7,116.753333 51.52,114.826667 51.52,112.4 C51.52,111.04 51.2266667,109.88 50.64,108.92 C50.0533333,107.96 49.3266667,107.166667 48.46,106.54 C47.5933333,105.913333 46.3866667,105.173333 44.84,104.32 L44.84,104.32 L44,103.84 C42.64,103.173333 41.6266667,102.633333 40.96,102.22 C40.2933333,101.806667 39.8,101.373333 39.48,100.92 C39.16,100.466667 39,99.9333333 39,99.32 C39,98.44 39.2733333,97.7533333 39.82,97.26 C40.3666667,96.7666667 41.12,96.52 42.08,96.52 C43.2266667,96.52 44.1333333,96.84 44.8,97.48 C45.4666667,98.12 45.8,98.92 45.8,99.88 L45.8,99.88 L45.8,100.6 C45.8,100.733333 45.8466667,100.846667 45.94,100.94 C46.0333333,101.033333 46.1466667,101.08 46.28,101.08 L46.28,101.08 L50.88,101.08 C51.0133333,101.08 51.1266667,101.033333 51.22,100.94 C51.3133333,100.846667 51.36,100.733333 51.36,100.6 L51.36,100.6 L51.36,99.8 C51.36,98.2 50.9733333,96.7866667 50.2,95.56 C49.4266667,94.3333333 48.3466667,93.38 46.96,92.7 C45.5733333,92.02 43.9866667,91.68 42.2,91.68 C40.4933333,91.68 38.9733333,91.9933333 37.64,92.62 C36.3066667,93.2466667 35.2733333,94.14 34.54,95.3 C33.8066667,96.46 33.44,97.8133333 33.44,99.36 C33.44,100.906667 33.8,102.226667 34.52,103.32 C35.24,104.413333 36.1066667,105.306667 37.12,106 C38.1333333,106.693333 39.44,107.44 41.04,108.24 C42.3466667,108.906667 43.3133333,109.433333 43.94,109.82 C44.5666667,110.206667 45.0533333,110.62 45.4,111.06 C45.7466667,111.5 45.92,112.026667 45.92,112.64 C45.92,113.466667 45.6466667,114.146667 45.1,114.68 C44.5533333,115.213333 43.76,115.48 42.72,115.48 C41.5466667,115.48 40.6133333,115.166667 39.92,114.54 C39.2266667,113.913333 38.88,113.133333 38.88,112.2 L38.88,112.2 L38.88,111.44 C38.88,111.306667 38.8333333,111.193333 38.74,111.1 C38.6466667,111.006667 38.5333333,110.96 38.4,110.96 L38.4,110.96 L33.8,110.96 C33.6666667,110.96 33.5533333,111.006667 33.46,111.1 C33.3666667,111.193333 33.32,111.306667 33.32,111.44 L33.32,111.44 L33.32,112.48 C33.32,114.026667 33.7,115.393333 34.46,116.58 C35.22,117.766667 36.2933333,118.686667 37.68,119.34 C39.0666667,119.993333 40.68,120.32 42.52,120.32 Z M63.6,120.32 C65.4133333,120.32 67.0133333,119.966667 68.4,119.26 C69.7866667,118.553333 70.86,117.546667 71.62,116.24 C72.38,114.933333 72.76,113.426667 72.76,111.72 L72.76,111.72 L72.76,111.6 C72.76,111.466667 72.7133333,111.353333 72.62,111.26 C72.5266667,111.166667 72.4133333,111.12 72.28,111.12 L72.28,111.12 L67.6,110.92 C67.28,110.92 67.12,111.066667 67.12,111.36 L67.12,111.36 L67.12,111.88 C67.12,112.973333 66.8,113.846667 66.16,114.5 C65.52,115.153333 64.6666667,115.48 63.6,115.48 C62.5333333,115.48 61.68,115.153333 61.04,114.5 C60.4,113.846667 60.08,112.973333 60.08,111.88 L60.08,111.88 L60.08,100.16 C60.08,99.0666667 60.4,98.1866667 61.04,97.52 C61.68,96.8533333 62.5333333,96.52 63.6,96.52 C64.6666667,96.52 65.52,96.8533333 66.16,97.52 C66.8,98.1866667 67.12,99.0666667 67.12,100.16 L67.12,100.16 L67.12,100.68 C67.12,100.973333 67.28,101.12 67.6,101.12 L67.6,101.12 L72.28,100.92 C72.4133333,100.92 72.5266667,100.866667 72.62,100.76 C72.7133333,100.653333 72.76,100.533333 72.76,100.4 L72.76,100.4 L72.76,100.2 C72.76,98.4933333 72.38,97 71.62,95.72 C70.86,94.44 69.7866667,93.4466667 68.4,92.74 C67.0133333,92.0333333 65.4133333,91.68 63.6,91.68 C61.7866667,91.68 60.1866667,92.04 58.8,92.76 C57.4133333,93.48 56.34,94.5 55.58,95.82 C54.82,97.14 54.44,98.6666667 54.44,100.4 L54.44,100.4 L54.44,111.52 C54.44,113.28 54.82,114.826667 55.58,116.16 C56.34,117.493333 57.4133333,118.52 58.8,119.24 C60.1866667,119.96 61.7866667,120.32 63.6,120.32 Z M81.52,120 C81.6533333,120 81.7666667,119.953333 81.86,119.86 C81.9533333,119.766667 82,119.653333 82,119.52 L82,119.52 L82,92.48 C82,92.3466667 81.9533333,92.2333333 81.86,92.14 C81.7666667,92.0466667 81.6533333,92 81.52,92 L81.52,92 L76.84,92 C76.7066667,92 76.5933333,92.0466667 76.5,92.14 C76.4066667,92.2333333 76.36,92.3466667 76.36,92.48 L76.36,92.48 L76.36,119.52 C76.36,119.653333 76.4066667,119.766667 76.5,119.86 C76.5933333,119.953333 76.7066667,120 76.84,120 L76.84,120 L81.52,120 Z M94.6,120.32 C97.32,120.32 99.5,119.606667 101.14,118.18 C102.78,116.753333 103.6,114.826667 103.6,112.4 C103.6,111.04 103.306667,109.88 102.72,108.92 C102.133333,107.96 101.406667,107.166667 100.54,106.54 C99.6733333,105.913333 98.4666667,105.173333 96.92,104.32 L96.92,104.32 L96.08,103.84 C94.72,103.173333 93.7066667,102.633333 93.04,102.22 C92.3733333,101.806667 91.88,101.373333 91.56,100.92 C91.24,100.466667 91.08,99.9333333 91.08,99.32 C91.08,98.44 91.3533333,97.7533333 91.9,97.26 C92.4466667,96.7666667 93.2,96.52 94.16,96.52 C95.3066667,96.52 96.2133333,96.84 96.88,97.48 C97.5466667,98.12 97.88,98.92 97.88,99.88 L97.88,99.88 L97.88,100.6 C97.88,100.733333 97.9266667,100.846667 98.02,100.94 C98.1133333,101.033333 98.2266667,101.08 98.36,101.08 L98.36,101.08 L102.96,101.08 C103.093333,101.08 103.206667,101.033333 103.3,100.94 C103.393333,100.846667 103.44,100.733333 103.44,100.6 L103.44,100.6 L103.44,99.8 C103.44,98.2 103.053333,96.7866667 102.28,95.56 C101.506667,94.3333333 100.426667,93.38 99.04,92.7 C97.6533333,92.02 96.0666667,91.68 94.28,91.68 C92.5733333,91.68 91.0533333,91.9933333 89.72,92.62 C88.3866667,93.2466667 87.3533333,94.14 86.62,95.3 C85.8866667,96.46 85.52,97.8133333 85.52,99.36 C85.52,100.906667 85.88,102.226667 86.6,103.32 C87.32,104.413333 88.1866667,105.306667 89.2,106 C90.2133333,106.693333 91.52,107.44 93.12,108.24 C94.4266667,108.906667 95.3933333,109.433333 96.02,109.82 C96.6466667,110.206667 97.1333333,110.62 97.48,111.06 C97.8266667,111.5 98,112.026667 98,112.64 C98,113.466667 97.7266667,114.146667 97.18,114.68 C96.6333333,115.213333 95.84,115.48 94.8,115.48 C93.6266667,115.48 92.6933333,115.166667 92,114.54 C91.3066667,113.913333 90.96,113.133333 90.96,112.2 L90.96,112.2 L90.96,111.44 C90.96,111.306667 90.9133333,111.193333 90.82,111.1 C90.7266667,111.006667 90.6133333,110.96 90.48,110.96 L90.48,110.96 L85.88,110.96 C85.7466667,110.96 85.6333333,111.006667 85.54,111.1 C85.4466667,111.193333 85.4,111.306667 85.4,111.44 L85.4,111.44 L85.4,112.48 C85.4,114.026667 85.78,115.393333 86.54,116.58 C87.3,117.766667 88.3733333,118.686667 89.76,119.34 C91.1466667,119.993333 92.76,120.32 94.6,120.32 Z M115.4,120.32 C118.12,120.32 120.3,119.606667 121.94,118.18 C123.58,116.753333 124.4,114.826667 124.4,112.4 C124.4,111.04 124.106667,109.88 123.52,108.92 C122.933333,107.96 122.206667,107.166667 121.34,106.54 C120.473333,105.913333 119.266667,105.173333 117.72,104.32 L117.72,104.32 L116.88,103.84 C115.52,103.173333 114.506667,102.633333 113.84,102.22 C113.173333,101.806667 112.68,101.373333 112.36,100.92 C112.04,100.466667 111.88,99.9333333 111.88,99.32 C111.88,98.44 112.153333,97.7533333 112.7,97.26 C113.246667,96.7666667 114,96.52 114.96,96.52 C116.106667,96.52 117.013333,96.84 117.68,97.48 C118.346667,98.12 118.68,98.92 118.68,99.88 L118.68,99.88 L118.68,100.6 C118.68,100.733333 118.726667,100.846667 118.82,100.94 C118.913333,101.033333 119.026667,101.08 119.16,101.08 L119.16,101.08 L123.76,101.08 C123.893333,101.08 124.006667,101.033333 124.1,100.94 C124.193333,100.846667 124.24,100.733333 124.24,100.6 L124.24,100.6 L124.24,99.8 C124.24,98.2 123.853333,96.7866667 123.08,95.56 C122.306667,94.3333333 121.226667,93.38 119.84,92.7 C118.453333,92.02 116.866667,91.68 115.08,91.68 C113.373333,91.68 111.853333,91.9933333 110.52,92.62 C109.186667,93.2466667 108.153333,94.14 107.42,95.3 C106.686667,96.46 106.32,97.8133333 106.32,99.36 C106.32,100.906667 106.68,102.226667 107.4,103.32 C108.12,104.413333 108.986667,105.306667 110,106 C111.013333,106.693333 112.32,107.44 113.92,108.24 C115.226667,108.906667 116.193333,109.433333 116.82,109.82 C117.446667,110.206667 117.933333,110.62 118.28,111.06 C118.626667,111.5 118.8,112.026667 118.8,112.64 C118.8,113.466667 118.526667,114.146667 117.98,114.68 C117.433333,115.213333 116.64,115.48 115.6,115.48 C114.426667,115.48 113.493333,115.166667 112.8,114.54 C112.106667,113.913333 111.76,113.133333 111.76,112.2 L111.76,112.2 L111.76,111.44 C111.76,111.306667 111.713333,111.193333 111.62,111.1 C111.526667,111.006667 111.413333,110.96 111.28,110.96 L111.28,110.96 L106.68,110.96 C106.546667,110.96 106.433333,111.006667 106.34,111.1 C106.246667,111.193333 106.2,111.306667 106.2,111.44 L106.2,111.44 L106.2,112.48 C106.2,114.026667 106.58,115.393333 107.34,116.58 C108.1,117.766667 109.173333,118.686667 110.56,119.34 C111.946667,119.993333 113.56,120.32 115.4,120.32 Z M136.6,120.36 C138.44,120.36 140.066667,119.986667 141.48,119.24 C142.893333,118.493333 143.986667,117.44 144.76,116.08 C145.533333,114.72 145.92,113.133333 145.92,111.32 L145.92,111.32 L145.92,100.68 C145.92,98.8933333 145.533333,97.32 144.76,95.96 C143.986667,94.6 142.893333,93.5466667 141.48,92.8 C140.066667,92.0533333 138.44,91.68 136.6,91.68 C134.76,91.68 133.14,92.0533333 131.74,92.8 C130.34,93.5466667 129.253333,94.6 128.48,95.96 C127.706667,97.32 127.32,98.8933333 127.32,100.68 L127.32,100.68 L127.32,111.32 C127.32,113.133333 127.706667,114.72 128.48,116.08 C129.253333,117.44 130.34,118.493333 131.74,119.24 C133.14,119.986667 134.76,120.36 136.6,120.36 Z M136.6,115.52 C135.506667,115.52 134.626667,115.153333 133.96,114.42 C133.293333,113.686667 132.96,112.733333 132.96,111.56 L132.96,111.56 L132.96,100.52 C132.96,99.32 133.293333,98.3533333 133.96,97.62 C134.626667,96.8866667 135.506667,96.52 136.6,96.52 C137.72,96.52 138.613333,96.8866667 139.28,97.62 C139.946667,98.3533333 140.28,99.32 140.28,100.52 L140.28,100.52 L140.28,111.56 C140.28,112.733333 139.946667,113.686667 139.28,114.42 C138.613333,115.153333 137.72,115.52 136.6,115.52 Z M154.84,120 C154.973333,120 155.086667,119.953333 155.18,119.86 C155.273333,119.766667 155.32,119.653333 155.32,119.52 L155.32,119.52 L155.32,108.6 C155.32,108.466667 155.386667,108.4 155.52,108.4 L155.52,108.4 L158.04,108.4 C158.12,108.4 158.186667,108.453333 158.24,108.56 L158.24,108.56 L162.28,119.6 C162.36,119.866667 162.546667,120 162.84,120 L162.84,120 L167.72,120 C168.013333,120 168.16,119.88 168.16,119.64 C168.16,119.56 168.146667,119.493333 168.12,119.44 L168.12,119.44 L163.56,107.96 C163.506667,107.826667 163.546667,107.733333 163.68,107.68 C165.04,107.066667 166.093333,106.133333 166.84,104.88 C167.586667,103.626667 167.96,102.146667 167.96,100.44 C167.96,98.7866667 167.626667,97.32 166.96,96.04 C166.293333,94.76 165.346667,93.7666667 164.12,93.06 C162.893333,92.3533333 161.493333,92 159.92,92 L159.92,92 L150.16,92 C150.026667,92 149.913333,92.0466667 149.82,92.14 C149.726667,92.2333333 149.68,92.3466667 149.68,92.48 L149.68,92.48 L149.68,119.52 C149.68,119.653333 149.726667,119.766667 149.82,119.86 C149.913333,119.953333 150.026667,120 150.16,120 L150.16,120 L154.84,120 Z M159,104.08 L155.52,104.08 C155.386667,104.08 155.32,104.013333 155.32,103.88 L155.32,103.88 L155.32,97.04 C155.32,96.9066667 155.386667,96.84 155.52,96.84 L155.52,96.84 L159,96.84 C159.986667,96.84 160.786667,97.1666667 161.4,97.82 C162.013333,98.4733333 162.32,99.36 162.32,100.48 C162.32,101.573333 162.013333,102.446667 161.4,103.1 C160.786667,103.753333 159.986667,104.08 159,104.08 L159,104.08 Z M179.8,120.32 C182.52,120.32 184.7,119.606667 186.34,118.18 C187.98,116.753333 188.8,114.826667 188.8,112.4 C188.8,111.04 188.506667,109.88 187.92,108.92 C187.333333,107.96 186.606667,107.166667 185.74,106.54 C184.873333,105.913333 183.666667,105.173333 182.12,104.32 L182.12,104.32 L181.28,103.84 C179.92,103.173333 178.906667,102.633333 178.24,102.22 C177.573333,101.806667 177.08,101.373333 176.76,100.92 C176.44,100.466667 176.28,99.9333333 176.28,99.32 C176.28,98.44 176.553333,97.7533333 177.1,97.26 C177.646667,96.7666667 178.4,96.52 179.36,96.52 C180.506667,96.52 181.413333,96.84 182.08,97.48 C182.746667,98.12 183.08,98.92 183.08,99.88 L183.08,99.88 L183.08,100.6 C183.08,100.733333 183.126667,100.846667 183.22,100.94 C183.313333,101.033333 183.426667,101.08 183.56,101.08 L183.56,101.08 L188.16,101.08 C188.293333,101.08 188.406667,101.033333 188.5,100.94 C188.593333,100.846667 188.64,100.733333 188.64,100.6 L188.64,100.6 L188.64,99.8 C188.64,98.2 188.253333,96.7866667 187.48,95.56 C186.706667,94.3333333 185.626667,93.38 184.24,92.7 C182.853333,92.02 181.266667,91.68 179.48,91.68 C177.773333,91.68 176.253333,91.9933333 174.92,92.62 C173.586667,93.2466667 172.553333,94.14 171.82,95.3 C171.086667,96.46 170.72,97.8133333 170.72,99.36 C170.72,100.906667 171.08,102.226667 171.8,103.32 C172.52,104.413333 173.386667,105.306667 174.4,106 C175.413333,106.693333 176.72,107.44 178.32,108.24 C179.626667,108.906667 180.593333,109.433333 181.22,109.82 C181.846667,110.206667 182.333333,110.62 182.68,111.06 C183.026667,111.5 183.2,112.026667 183.2,112.64 C183.2,113.466667 182.926667,114.146667 182.38,114.68 C181.833333,115.213333 181.04,115.48 180,115.48 C178.826667,115.48 177.893333,115.166667 177.2,114.54 C176.506667,113.913333 176.16,113.133333 176.16,112.2 L176.16,112.2 L176.16,111.44 C176.16,111.306667 176.113333,111.193333 176.02,111.1 C175.926667,111.006667 175.813333,110.96 175.68,110.96 L175.68,110.96 L171.08,110.96 C170.946667,110.96 170.833333,111.006667 170.74,111.1 C170.646667,111.193333 170.6,111.306667 170.6,111.44 L170.6,111.44 L170.6,112.48 C170.6,114.026667 170.98,115.393333 171.74,116.58 C172.5,117.766667 173.573333,118.686667 174.96,119.34 C176.346667,119.993333 177.96,120.32 179.8,120.32 Z" id="path-1"></path>
        <filter x="-3.9%" y="-3.2%" width="107.7%" height="112.9%" filterUnits="objectBoundingBox" id="filter-2">
            <feOffset dx="0" dy="3" in="SourceAlpha" result="shadowOffsetOuter1"></feOffset>
            <feGaussianBlur stdDeviation="1.5" in="shadowOffsetOuter1" result="shadowBlurOuter1"></feGaussianBlur>
            <feColorMatrix values="0 0 0 0 0   0 0 0 0 0   0 0 0 0 0  0 0 0 0.196705638 0" type="matrix" in="shadowBlurOuter1"></feColorMatrix>
        </filter>
    </defs>
    <g id="Designs" stroke="none" stroke-width="1" fill="none" fill-rule="evenodd">
        <g id="Desktop---Standard---Step-1" transform="translate(-363.000000, -75.000000)" fill-rule="nonzero">
            <g id="Group-7" transform="translate(333.000000, 48.000000)">
                <g id="ROCKPAPERSCISSORS.">
                    <use fill="black" fill-opacity="1" filter="url(#filter-2)" xlink:href="#path-1"></use>
                    <use fill="#FFFFFF" xlink:href="#path-1"></use>
                </g>
            </g>
        </g>
    </g>
</svg>