<?xml version="1.0" encoding="UTF-8"?>
<svg width="115px" height="114px" viewBox="0 0 115 114" version="1.1" xmlns="http://www.w3.org/2000/svg" xmlns:xlink="http://www.w3.org/1999/xlink">
    <title>ROCKPAPERSCISSORSLIZARDSPOCK</title>
    <defs>
        <path d="M37.096,42 C37.1893333,42 37.2686667,41.9673333 37.334,41.902 C37.3993333,41.8366667 37.432,41.7573333 37.432,41.664 L37.432,41.664 L37.432,34.02 C37.432,33.9266667 37.4786667,33.88 37.572,33.88 L37.572,33.88 L39.336,33.88 C39.392,33.88 39.4386667,33.9173333 39.476,33.992 L39.476,33.992 L42.304,41.72 C42.36,41.9066667 42.4906667,42 42.696,42 L42.696,42 L46.112,42 C46.3173333,42 46.42,41.916 46.42,41.748 C46.42,41.692 46.4106667,41.6453333 46.392,41.608 L46.392,41.608 L43.2,33.572 C43.1626667,33.4786667 43.1906667,33.4133333 43.284,33.376 C44.236,32.9466667 44.9733333,32.2933333 45.496,31.416 C46.0186667,30.5386667 46.28,29.5026667 46.28,28.308 C46.28,27.1506667 46.0466667,26.124 45.58,25.228 C45.1133333,24.332 44.4506667,23.6366667 43.592,23.142 C42.7333333,22.6473333 41.7533333,22.4 40.652,22.4 L40.652,22.4 L33.82,22.4 C33.7266667,22.4 33.6473333,22.4326667 33.582,22.498 C33.5166667,22.5633333 33.484,22.6426667 33.484,22.736 L33.484,22.736 L33.484,41.664 C33.484,41.7573333 33.5166667,41.8366667 33.582,41.902 C33.6473333,41.9673333 33.7266667,42 33.82,42 L33.82,42 L37.096,42 Z M40.008,30.856 L37.572,30.856 C37.4786667,30.856 37.432,30.8093333 37.432,30.716 L37.432,30.716 L37.432,25.928 C37.432,25.8346667 37.4786667,25.788 37.572,25.788 L37.572,25.788 L40.008,25.788 C40.6986667,25.788 41.2586667,26.0166667 41.688,26.474 C42.1173333,26.9313333 42.332,27.552 42.332,28.336 C42.332,29.1013333 42.1173333,29.7126667 41.688,30.17 C41.2586667,30.6273333 40.6986667,30.856 40.008,30.856 L40.008,30.856 Z M54.848,42.252 C56.136,42.252 57.2746667,41.9906667 58.264,41.468 C59.2533333,40.9453333 60.0186667,40.208 60.56,39.256 C61.1013333,38.304 61.372,37.1933333 61.372,35.924 L61.372,35.924 L61.372,28.476 C61.372,27.2253333 61.1013333,26.124 60.56,25.172 C60.0186667,24.22 59.2533333,23.4826667 58.264,22.96 C57.2746667,22.4373333 56.136,22.176 54.848,22.176 C53.56,22.176 52.426,22.4373333 51.446,22.96 C50.466,23.4826667 49.7053333,24.22 49.164,25.172 C48.6226667,26.124 48.352,27.2253333 48.352,28.476 L48.352,28.476 L48.352,35.924 C48.352,37.1933333 48.6226667,38.304 49.164,39.256 C49.7053333,40.208 50.466,40.9453333 51.446,41.468 C52.426,41.9906667 53.56,42.252 54.848,42.252 Z M54.848,38.864 C54.0826667,38.864 53.4666667,38.6073333 53,38.094 C52.5333333,37.5806667 52.3,36.9133333 52.3,36.092 L52.3,36.092 L52.3,28.364 C52.3,27.524 52.5333333,26.8473333 53,26.334 C53.4666667,25.8206667 54.0826667,25.564 54.848,25.564 C55.632,25.564 56.2573333,25.8206667 56.724,26.334 C57.1906667,26.8473333 57.424,27.524 57.424,28.364 L57.424,28.364 L57.424,36.092 C57.424,36.9133333 57.1906667,37.5806667 56.724,38.094 C56.2573333,38.6073333 55.632,38.864 54.848,38.864 Z M70.08,42.224 C71.3493333,42.224 72.4693333,41.9766667 73.44,41.482 C74.4106667,40.9873333 75.162,40.2826667 75.694,39.368 C76.226,38.4533333 76.492,37.3986667 76.492,36.204 L76.492,36.204 L76.492,36.12 C76.492,36.0266667 76.4593333,35.9473333 76.394,35.882 C76.3286667,35.8166667 76.2493333,35.784 76.156,35.784 L76.156,35.784 L72.88,35.644 C72.656,35.644 72.544,35.7466667 72.544,35.952 L72.544,35.952 L72.544,36.316 C72.544,37.0813333 72.32,37.6926667 71.872,38.15 C71.424,38.6073333 70.8266667,38.836 70.08,38.836 C69.3333333,38.836 68.736,38.6073333 68.288,38.15 C67.84,37.6926667 67.616,37.0813333 67.616,36.316 L67.616,36.316 L67.616,28.112 C67.616,27.3466667 67.84,26.7306667 68.288,26.264 C68.736,25.7973333 69.3333333,25.564 70.08,25.564 C70.8266667,25.564 71.424,25.7973333 71.872,26.264 C72.32,26.7306667 72.544,27.3466667 72.544,28.112 L72.544,28.112 L72.544,28.476 C72.544,28.6813333 72.656,28.784 72.88,28.784 L72.88,28.784 L76.156,28.644 C76.2493333,28.644 76.3286667,28.6066667 76.394,28.532 C76.4593333,28.4573333 76.492,28.3733333 76.492,28.28 L76.492,28.28 L76.492,28.14 C76.492,26.9453333 76.226,25.9 75.694,25.004 C75.162,24.108 74.4106667,23.4126667 73.44,22.918 C72.4693333,22.4233333 71.3493333,22.176 70.08,22.176 C68.8106667,22.176 67.6906667,22.428 66.72,22.932 C65.7493333,23.436 64.998,24.15 64.466,25.074 C63.934,25.998 63.668,27.0666667 63.668,28.28 L63.668,28.28 L63.668,36.064 C63.668,37.296 63.934,38.3786667 64.466,39.312 C64.998,40.2453333 65.7493333,40.964 66.72,41.468 C67.6906667,41.972 68.8106667,42.224 70.08,42.224 Z M82.624,42 C82.7173333,42 82.7966667,41.9673333 82.862,41.902 C82.9273333,41.8366667 82.96,41.7573333 82.96,41.664 L82.96,41.664 L82.96,36.064 C82.96,36.0266667 82.9786667,35.9706667 83.016,35.896 L83.016,35.896 L84.276,34.076 C84.3133333,34.02 84.3506667,33.992 84.388,33.992 C84.4253333,33.992 84.4533333,34.02 84.472,34.076 L84.472,34.076 L88.448,41.748 C88.5413333,41.916 88.672,42 88.84,42 L88.84,42 L92.424,42 C92.6293333,42 92.732,41.9253333 92.732,41.776 C92.732,41.7386667 92.7133333,41.6826667 92.676,41.608 L92.676,41.608 L87.188,31.024 C87.1693333,30.9493333 87.1693333,30.884 87.188,30.828 L87.188,30.828 L92.368,22.792 C92.4426667,22.68 92.4566667,22.5866667 92.41,22.512 C92.3633333,22.4373333 92.2746667,22.4 92.144,22.4 L92.144,22.4 L88.532,22.4 C88.364,22.4 88.2333333,22.4746667 88.14,22.624 L88.14,22.624 L83.128,30.24 C83.1093333,30.296 83.0766667,30.3146667 83.03,30.296 C82.9833333,30.2773333 82.96,30.24 82.96,30.184 L82.96,30.184 L82.96,22.736 C82.96,22.6426667 82.9273333,22.5633333 82.862,22.498 C82.7966667,22.4326667 82.7173333,22.4 82.624,22.4 L82.624,22.4 L79.348,22.4 C79.2546667,22.4 79.1753333,22.4326667 79.11,22.498 C79.0446667,22.5633333 79.012,22.6426667 79.012,22.736 L79.012,22.736 L79.012,41.664 C79.012,41.7573333 79.0446667,41.8366667 79.11,41.902 C79.1753333,41.9673333 79.2546667,42 79.348,42 L79.348,42 L82.624,42 Z M37.012,64 C37.1053333,64 37.1846667,63.9673333 37.25,63.902 C37.3153333,63.8366667 37.348,63.7573333 37.348,63.664 L37.348,63.664 L37.348,56.384 C37.348,56.2906667 37.3946667,56.244 37.488,56.244 L37.488,56.244 L40.512,56.244 C41.632,56.244 42.626,56.0013333 43.494,55.516 C44.362,55.0306667 45.034,54.3446667 45.51,53.458 C45.986,52.5713333 46.224,51.5493333 46.224,50.392 C46.224,49.216 45.986,48.1706667 45.51,47.256 C45.034,46.3413333 44.362,45.632 43.494,45.128 C42.626,44.624 41.632,44.372 40.512,44.372 L40.512,44.372 L33.736,44.372 C33.6426667,44.372 33.5633333,44.4046667 33.498,44.47 C33.4326667,44.5353333 33.4,44.6146667 33.4,44.708 L33.4,44.708 L33.4,63.664 C33.4,63.7573333 33.4326667,63.8366667 33.498,63.902 C33.5633333,63.9673333 33.6426667,64 33.736,64 L33.736,64 L37.012,64 Z M39.868,53.108 L37.488,53.108 C37.3946667,53.108 37.348,53.0613333 37.348,52.968 L37.348,52.968 L37.348,47.928 C37.348,47.8346667 37.3946667,47.788 37.488,47.788 L37.488,47.788 L39.868,47.788 C40.596,47.788 41.1793333,48.0306667 41.618,48.516 C42.0566667,49.0013333 42.276,49.6546667 42.276,50.476 C42.276,51.2786667 42.0566667,51.918 41.618,52.394 C41.1793333,52.87 40.596,53.108 39.868,53.108 L39.868,53.108 Z M51.152,64 C51.3386667,64 51.46,63.9066667 51.516,63.72 L51.516,63.72 L52.16,60.976 C52.1786667,60.9013333 52.2253333,60.864 52.3,60.864 L52.3,60.864 L57.536,60.864 C57.6106667,60.864 57.6573333,60.9013333 57.676,60.976 L57.676,60.976 L58.32,63.72 C58.376,63.9066667 58.5066667,64 58.712,64 L58.712,64 L62.128,64 C62.3333333,64 62.436,63.916 62.436,63.748 L62.436,63.748 L62.408,63.636 L57.368,44.68 C57.312,44.4933333 57.1813333,44.4 56.976,44.4 L56.976,44.4 L52.916,44.4 C52.7106667,44.4 52.58,44.4933333 52.524,44.68 L52.524,44.68 L47.484,63.636 C47.428,63.8786667 47.5213333,64 47.764,64 L47.764,64 L51.152,64 Z M56.752,57.812 L53.056,57.812 C53.0186667,57.812 52.9813333,57.798 52.944,57.77 C52.9066667,57.742 52.8973333,57.7 52.916,57.644 L52.916,57.644 L54.792,49.524 C54.8106667,49.4493333 54.8386667,49.412 54.876,49.412 C54.9133333,49.412 54.9413333,49.4493333 54.96,49.524 L54.96,49.524 L56.892,57.644 C56.9106667,57.7 56.9013333,57.742 56.864,57.77 C56.8266667,57.798 56.7893333,57.812 56.752,57.812 L56.752,57.812 Z M68.036,64 C68.1293333,64 68.2086667,63.9673333 68.274,63.902 C68.3393333,63.8366667 68.372,63.7573333 68.372,63.664 L68.372,63.664 L68.372,56.384 C68.372,56.2906667 68.4186667,56.244 68.512,56.244 L68.512,56.244 L71.536,56.244 C72.656,56.244 73.65,56.0013333 74.518,55.516 C75.386,55.0306667 76.058,54.3446667 76.534,53.458 C77.01,52.5713333 77.248,51.5493333 77.248,50.392 C77.248,49.216 77.01,48.1706667 76.534,47.256 C76.058,46.3413333 75.386,45.632 74.518,45.128 C73.65,44.624 72.656,44.372 71.536,44.372 L71.536,44.372 L64.76,44.372 C64.6666667,44.372 64.5873333,44.4046667 64.522,44.47 C64.4566667,44.5353333 64.424,44.6146667 64.424,44.708 L64.424,44.708 L64.424,63.664 C64.424,63.7573333 64.4566667,63.8366667 64.522,63.902 C64.5873333,63.9673333 64.6666667,64 64.76,64 L64.76,64 L68.036,64 Z M70.892,53.108 L68.512,53.108 C68.4186667,53.108 68.372,53.0613333 68.372,52.968 L68.372,52.968 L68.372,47.928 C68.372,47.8346667 68.4186667,47.788 68.512,47.788 L68.512,47.788 L70.892,47.788 C71.62,47.788 72.2033333,48.0306667 72.642,48.516 C73.0806667,49.0013333 73.3,49.6546667 73.3,50.476 C73.3,51.2786667 73.0806667,51.918 72.642,52.394 C72.2033333,52.87 71.62,53.108 70.892,53.108 L70.892,53.108 Z M90.968,64 C91.0613333,64 91.1406667,63.9673333 91.206,63.902 C91.2713333,63.8366667 91.304,63.7573333 91.304,63.664 L91.304,63.664 L91.304,60.948 C91.304,60.8546667 91.2713333,60.7753333 91.206,60.71 C91.1406667,60.6446667 91.0613333,60.612 90.968,60.612 L90.968,60.612 L83.464,60.612 C83.3706667,60.612 83.324,60.5653333 83.324,60.472 L83.324,60.472 L83.324,55.964 C83.324,55.8706667 83.3706667,55.824 83.464,55.824 L83.464,55.824 L88.14,55.824 C88.2333333,55.824 88.3126667,55.7913333 88.378,55.726 C88.4433333,55.6606667 88.476,55.5813333 88.476,55.488 L88.476,55.488 L88.476,52.772 C88.476,52.6786667 88.4433333,52.5993333 88.378,52.534 C88.3126667,52.4686667 88.2333333,52.436 88.14,52.436 L88.14,52.436 L83.464,52.436 C83.3706667,52.436 83.324,52.3893333 83.324,52.296 L83.324,52.296 L83.324,47.928 C83.324,47.8346667 83.3706667,47.788 83.464,47.788 L83.464,47.788 L90.968,47.788 C91.0613333,47.788 91.1406667,47.7553333 91.206,47.69 C91.2713333,47.6246667 91.304,47.5453333 91.304,47.452 L91.304,47.452 L91.304,44.736 C91.304,44.6426667 91.2713333,44.5633333 91.206,44.498 C91.1406667,44.4326667 91.0613333,44.4 90.968,44.4 L90.968,44.4 L79.712,44.4 C79.6186667,44.4 79.5393333,44.4326667 79.474,44.498 C79.4086667,44.5633333 79.376,44.6426667 79.376,44.736 L79.376,44.736 L79.376,63.664 C79.376,63.7573333 79.4086667,63.8366667 79.474,63.902 C79.5393333,63.9673333 79.6186667,64 79.712,64 L79.712,64 L90.968,64 Z M97.296,64 C97.3893333,64 97.4686667,63.9673333 97.534,63.902 C97.5993333,63.8366667 97.632,63.7573333 97.632,63.664 L97.632,63.664 L97.632,56.02 C97.632,55.9266667 97.6786667,55.88 97.772,55.88 L97.772,55.88 L99.536,55.88 C99.592,55.88 99.6386667,55.9173333 99.676,55.992 L99.676,55.992 L102.504,63.72 C102.56,63.9066667 102.690667,64 102.896,64 L102.896,64 L106.312,64 C106.517333,64 106.62,63.916 106.62,63.748 C106.62,63.692 106.610667,63.6453333 106.592,63.608 L106.592,63.608 L103.4,55.572 C103.362667,55.4786667 103.390667,55.4133333 103.484,55.376 C104.436,54.9466667 105.173333,54.2933333 105.696,53.416 C106.218667,52.5386667 106.48,51.5026667 106.48,50.308 C106.48,49.1506667 106.246667,48.124 105.78,47.228 C105.313333,46.332 104.650667,45.6366667 103.792,45.142 C102.933333,44.6473333 101.953333,44.4 100.852,44.4 L100.852,44.4 L94.02,44.4 C93.9266667,44.4 93.8473333,44.4326667 93.782,44.498 C93.7166667,44.5633333 93.684,44.6426667 93.684,44.736 L93.684,44.736 L93.684,63.664 C93.684,63.7573333 93.7166667,63.8366667 93.782,63.902 C93.8473333,63.9673333 93.9266667,64 94.02,64 L94.02,64 L97.296,64 Z M100.208,52.856 L97.772,52.856 C97.6786667,52.856 97.632,52.8093333 97.632,52.716 L97.632,52.716 L97.632,47.928 C97.632,47.8346667 97.6786667,47.788 97.772,47.788 L97.772,47.788 L100.208,47.788 C100.898667,47.788 101.458667,48.0166667 101.888,48.474 C102.317333,48.9313333 102.532,49.552 102.532,50.336 C102.532,51.1013333 102.317333,51.7126667 101.888,52.17 C101.458667,52.6273333 100.898667,52.856 100.208,52.856 L100.208,52.856 Z M39.364,86.224 C41.268,86.224 42.794,85.7246667 43.942,84.726 C45.09,83.7273333 45.664,82.3786667 45.664,80.68 C45.664,79.728 45.4586667,78.916 45.048,78.244 C44.6373333,77.572 44.1286667,77.0166667 43.522,76.578 C42.9153333,76.1393333 42.0706667,75.6213333 40.988,75.024 L40.988,75.024 L40.4,74.688 C39.448,74.2213333 38.7386667,73.8433333 38.272,73.554 C37.8053333,73.2646667 37.46,72.9613333 37.236,72.644 C37.012,72.3266667 36.9,71.9533333 36.9,71.524 C36.9,70.908 37.0913333,70.4273333 37.474,70.082 C37.8566667,69.7366667 38.384,69.564 39.056,69.564 C39.8586667,69.564 40.4933333,69.788 40.96,70.236 C41.4266667,70.684 41.66,71.244 41.66,71.916 L41.66,71.916 L41.66,72.42 C41.66,72.5133333 41.6926667,72.5926667 41.758,72.658 C41.8233333,72.7233333 41.9026667,72.756 41.996,72.756 L41.996,72.756 L45.216,72.756 C45.3093333,72.756 45.3886667,72.7233333 45.454,72.658 C45.5193333,72.5926667 45.552,72.5133333 45.552,72.42 L45.552,72.42 L45.552,71.86 C45.552,70.74 45.2813333,69.7506667 44.74,68.892 C44.1986667,68.0333333 43.4426667,67.366 42.472,66.89 C41.5013333,66.414 40.3906667,66.176 39.14,66.176 C37.9453333,66.176 36.8813333,66.3953333 35.948,66.834 C35.0146667,67.2726667 34.2913333,67.898 33.778,68.71 C33.2646667,69.522 33.008,70.4693333 33.008,71.552 C33.008,72.6346667 33.26,73.5586667 33.764,74.324 C34.268,75.0893333 34.8746667,75.7146667 35.584,76.2 C36.2933333,76.6853333 37.208,77.208 38.328,77.768 C39.2426667,78.2346667 39.9193333,78.6033333 40.358,78.874 C40.7966667,79.1446667 41.1373333,79.434 41.38,79.742 C41.6226667,80.05 41.744,80.4186667 41.744,80.848 C41.744,81.4266667 41.5526667,81.9026667 41.17,82.276 C40.7873333,82.6493333 40.232,82.836 39.504,82.836 C38.6826667,82.836 38.0293333,82.6166667 37.544,82.178 C37.0586667,81.7393333 36.816,81.1933333 36.816,80.54 L36.816,80.54 L36.816,80.008 C36.816,79.9146667 36.7833333,79.8353333 36.718,79.77 C36.6526667,79.7046667 36.5733333,79.672 36.48,79.672 L36.48,79.672 L33.26,79.672 C33.1666667,79.672 33.0873333,79.7046667 33.022,79.77 C32.9566667,79.8353333 32.924,79.9146667 32.924,80.008 L32.924,80.008 L32.924,80.736 C32.924,81.8186667 33.19,82.7753333 33.722,83.606 C34.254,84.4366667 35.0053333,85.0806667 35.976,85.538 C36.9466667,85.9953333 38.076,86.224 39.364,86.224 Z M54.12,86.224 C55.3893333,86.224 56.5093333,85.9766667 57.48,85.482 C58.4506667,84.9873333 59.202,84.2826667 59.734,83.368 C60.266,82.4533333 60.532,81.3986667 60.532,80.204 L60.532,80.204 L60.532,80.12 C60.532,80.0266667 60.4993333,79.9473333 60.434,79.882 C60.3686667,79.8166667 60.2893333,79.784 60.196,79.784 L60.196,79.784 L56.92,79.644 C56.696,79.644 56.584,79.7466667 56.584,79.952 L56.584,79.952 L56.584,80.316 C56.584,81.0813333 56.36,81.6926667 55.912,82.15 C55.464,82.6073333 54.8666667,82.836 54.12,82.836 C53.3733333,82.836 52.776,82.6073333 52.328,82.15 C51.88,81.6926667 51.656,81.0813333 51.656,80.316 L51.656,80.316 L51.656,72.112 C51.656,71.3466667 51.88,70.7306667 52.328,70.264 C52.776,69.7973333 53.3733333,69.564 54.12,69.564 C54.8666667,69.564 55.464,69.7973333 55.912,70.264 C56.36,70.7306667 56.584,71.3466667 56.584,72.112 L56.584,72.112 L56.584,72.476 C56.584,72.6813333 56.696,72.784 56.92,72.784 L56.92,72.784 L60.196,72.644 C60.2893333,72.644 60.3686667,72.6066667 60.434,72.532 C60.4993333,72.4573333 60.532,72.3733333 60.532,72.28 L60.532,72.28 L60.532,72.14 C60.532,70.9453333 60.266,69.9 59.734,69.004 C59.202,68.108 58.4506667,67.4126667 57.48,66.918 C56.5093333,66.4233333 55.3893333,66.176 54.12,66.176 C52.8506667,66.176 51.7306667,66.428 50.76,66.932 C49.7893333,67.436 49.038,68.15 48.506,69.074 C47.974,69.998 47.708,71.0666667 47.708,72.28 L47.708,72.28 L47.708,80.064 C47.708,81.296 47.974,82.3786667 48.506,83.312 C49.038,84.2453333 49.7893333,84.964 50.76,85.468 C51.7306667,85.972 52.8506667,86.224 54.12,86.224 Z M66.664,86 C66.7573333,86 66.8366667,85.9673333 66.902,85.902 C66.9673333,85.8366667 67,85.7573333 67,85.664 L67,85.664 L67,66.736 C67,66.6426667 66.9673333,66.5633333 66.902,66.498 C66.8366667,66.4326667 66.7573333,66.4 66.664,66.4 L66.664,66.4 L63.388,66.4 C63.2946667,66.4 63.2153333,66.4326667 63.15,66.498 C63.0846667,66.5633333 63.052,66.6426667 63.052,66.736 L63.052,66.736 L63.052,85.664 C63.052,85.7573333 63.0846667,85.8366667 63.15,85.902 C63.2153333,85.9673333 63.2946667,86 63.388,86 L63.388,86 L66.664,86 Z M75.82,86.224 C77.724,86.224 79.25,85.7246667 80.398,84.726 C81.546,83.7273333 82.12,82.3786667 82.12,80.68 C82.12,79.728 81.9146667,78.916 81.504,78.244 C81.0933333,77.572 80.5846667,77.0166667 79.978,76.578 C79.3713333,76.1393333 78.5266667,75.6213333 77.444,75.024 L77.444,75.024 L76.856,74.688 C75.904,74.2213333 75.1946667,73.8433333 74.728,73.554 C74.2613333,73.2646667 73.916,72.9613333 73.692,72.644 C73.468,72.3266667 73.356,71.9533333 73.356,71.524 C73.356,70.908 73.5473333,70.4273333 73.93,70.082 C74.3126667,69.7366667 74.84,69.564 75.512,69.564 C76.3146667,69.564 76.9493333,69.788 77.416,70.236 C77.8826667,70.684 78.116,71.244 78.116,71.916 L78.116,71.916 L78.116,72.42 C78.116,72.5133333 78.1486667,72.5926667 78.214,72.658 C78.2793333,72.7233333 78.3586667,72.756 78.452,72.756 L78.452,72.756 L81.672,72.756 C81.7653333,72.756 81.8446667,72.7233333 81.91,72.658 C81.9753333,72.5926667 82.008,72.5133333 82.008,72.42 L82.008,72.42 L82.008,71.86 C82.008,70.74 81.7373333,69.7506667 81.196,68.892 C80.6546667,68.0333333 79.8986667,67.366 78.928,66.89 C77.9573333,66.414 76.8466667,66.176 75.596,66.176 C74.4013333,66.176 73.3373333,66.3953333 72.404,66.834 C71.4706667,67.2726667 70.7473333,67.898 70.234,68.71 C69.7206667,69.522 69.464,70.4693333 69.464,71.552 C69.464,72.6346667 69.716,73.5586667 70.22,74.324 C70.724,75.0893333 71.3306667,75.7146667 72.04,76.2 C72.7493333,76.6853333 73.664,77.208 74.784,77.768 C75.6986667,78.2346667 76.3753333,78.6033333 76.814,78.874 C77.2526667,79.1446667 77.5933333,79.434 77.836,79.742 C78.0786667,80.05 78.2,80.4186667 78.2,80.848 C78.2,81.4266667 78.0086667,81.9026667 77.626,82.276 C77.2433333,82.6493333 76.688,82.836 75.96,82.836 C75.1386667,82.836 74.4853333,82.6166667 74,82.178 C73.5146667,81.7393333 73.272,81.1933333 73.272,80.54 L73.272,80.54 L73.272,80.008 C73.272,79.9146667 73.2393333,79.8353333 73.174,79.77 C73.1086667,79.7046667 73.0293333,79.672 72.936,79.672 L72.936,79.672 L69.716,79.672 C69.6226667,79.672 69.5433333,79.7046667 69.478,79.77 C69.4126667,79.8353333 69.38,79.9146667 69.38,80.008 L69.38,80.008 L69.38,80.736 C69.38,81.8186667 69.646,82.7753333 70.178,83.606 C70.71,84.4366667 71.4613333,85.0806667 72.432,85.538 C73.4026667,85.9953333 74.532,86.224 75.82,86.224 Z M90.38,86.224 C92.284,86.224 93.81,85.7246667 94.958,84.726 C96.106,83.7273333 96.68,82.3786667 96.68,80.68 C96.68,79.728 96.4746667,78.916 96.064,78.244 C95.6533333,77.572 95.1446667,77.0166667 94.538,76.578 C93.9313333,76.1393333 93.0866667,75.6213333 92.004,75.024 L92.004,75.024 L91.416,74.688 C90.464,74.2213333 89.7546667,73.8433333 89.288,73.554 C88.8213333,73.2646667 88.476,72.9613333 88.252,72.644 C88.028,72.3266667 87.916,71.9533333 87.916,71.524 C87.916,70.908 88.1073333,70.4273333 88.49,70.082 C88.8726667,69.7366667 89.4,69.564 90.072,69.564 C90.8746667,69.564 91.5093333,69.788 91.976,70.236 C92.4426667,70.684 92.676,71.244 92.676,71.916 L92.676,71.916 L92.676,72.42 C92.676,72.5133333 92.7086667,72.5926667 92.774,72.658 C92.8393333,72.7233333 92.9186667,72.756 93.012,72.756 L93.012,72.756 L96.232,72.756 C96.3253333,72.756 96.4046667,72.7233333 96.47,72.658 C96.5353333,72.5926667 96.568,72.5133333 96.568,72.42 L96.568,72.42 L96.568,71.86 C96.568,70.74 96.2973333,69.7506667 95.756,68.892 C95.2146667,68.0333333 94.4586667,67.366 93.488,66.89 C92.5173333,66.414 91.4066667,66.176 90.156,66.176 C88.9613333,66.176 87.8973333,66.3953333 86.964,66.834 C86.0306667,67.2726667 85.3073333,67.898 84.794,68.71 C84.2806667,69.522 84.024,70.4693333 84.024,71.552 C84.024,72.6346667 84.276,73.5586667 84.78,74.324 C85.284,75.0893333 85.8906667,75.7146667 86.6,76.2 C87.3093333,76.6853333 88.224,77.208 89.344,77.768 C90.2586667,78.2346667 90.9353333,78.6033333 91.374,78.874 C91.8126667,79.1446667 92.1533333,79.434 92.396,79.742 C92.6386667,80.05 92.76,80.4186667 92.76,80.848 C92.76,81.4266667 92.5686667,81.9026667 92.186,82.276 C91.8033333,82.6493333 91.248,82.836 90.52,82.836 C89.6986667,82.836 89.0453333,82.6166667 88.56,82.178 C88.0746667,81.7393333 87.832,81.1933333 87.832,80.54 L87.832,80.54 L87.832,80.008 C87.832,79.9146667 87.7993333,79.8353333 87.734,79.77 C87.6686667,79.7046667 87.5893333,79.672 87.496,79.672 L87.496,79.672 L84.276,79.672 C84.1826667,79.672 84.1033333,79.7046667 84.038,79.77 C83.9726667,79.8353333 83.94,79.9146667 83.94,80.008 L83.94,80.008 L83.94,80.736 C83.94,81.8186667 84.206,82.7753333 84.738,83.606 C85.27,84.4366667 86.0213333,85.0806667 86.992,85.538 C87.9626667,85.9953333 89.092,86.224 90.38,86.224 Z M105.22,86.252 C106.508,86.252 107.646667,85.9906667 108.636,85.468 C109.625333,84.9453333 110.390667,84.208 110.932,83.256 C111.473333,82.304 111.744,81.1933333 111.744,79.924 L111.744,79.924 L111.744,72.476 C111.744,71.2253333 111.473333,70.124 110.932,69.172 C110.390667,68.22 109.625333,67.4826667 108.636,66.96 C107.646667,66.4373333 106.508,66.176 105.22,66.176 C103.932,66.176 102.798,66.4373333 101.818,66.96 C100.838,67.4826667 100.077333,68.22 99.536,69.172 C98.9946667,70.124 98.724,71.2253333 98.724,72.476 L98.724,72.476 L98.724,79.924 C98.724,81.1933333 98.9946667,82.304 99.536,83.256 C100.077333,84.208 100.838,84.9453333 101.818,85.468 C102.798,85.9906667 103.932,86.252 105.22,86.252 Z M105.22,82.864 C104.454667,82.864 103.838667,82.6073333 103.372,82.094 C102.905333,81.5806667 102.672,80.9133333 102.672,80.092 L102.672,80.092 L102.672,72.364 C102.672,71.524 102.905333,70.8473333 103.372,70.334 C103.838667,69.8206667 104.454667,69.564 105.22,69.564 C106.004,69.564 106.629333,69.8206667 107.096,70.334 C107.562667,70.8473333 107.796,71.524 107.796,72.364 L107.796,72.364 L107.796,80.092 C107.796,80.9133333 107.562667,81.5806667 107.096,82.094 C106.629333,82.6073333 106.004,82.864 105.22,82.864 Z M117.988,86 C118.081333,86 118.160667,85.9673333 118.226,85.902 C118.291333,85.8366667 118.324,85.7573333 118.324,85.664 L118.324,85.664 L118.324,78.02 C118.324,77.9266667 118.370667,77.88 118.464,77.88 L118.464,77.88 L120.228,77.88 C120.284,77.88 120.330667,77.9173333 120.368,77.992 L120.368,77.992 L123.196,85.72 C123.252,85.9066667 123.382667,86 123.588,86 L123.588,86 L127.004,86 C127.209333,86 127.312,85.916 127.312,85.748 C127.312,85.692 127.302667,85.6453333 127.284,85.608 L127.284,85.608 L124.092,77.572 C124.054667,77.4786667 124.082667,77.4133333 124.176,77.376 C125.128,76.9466667 125.865333,76.2933333 126.388,75.416 C126.910667,74.5386667 127.172,73.5026667 127.172,72.308 C127.172,71.1506667 126.938667,70.124 126.472,69.228 C126.005333,68.332 125.342667,67.6366667 124.484,67.142 C123.625333,66.6473333 122.645333,66.4 121.544,66.4 L121.544,66.4 L114.712,66.4 C114.618667,66.4 114.539333,66.4326667 114.474,66.498 C114.408667,66.5633333 114.376,66.6426667 114.376,66.736 L114.376,66.736 L114.376,85.664 C114.376,85.7573333 114.408667,85.8366667 114.474,85.902 C114.539333,85.9673333 114.618667,86 114.712,86 L114.712,86 L117.988,86 Z M120.9,74.856 L118.464,74.856 C118.370667,74.856 118.324,74.8093333 118.324,74.716 L118.324,74.716 L118.324,69.928 C118.324,69.8346667 118.370667,69.788 118.464,69.788 L118.464,69.788 L120.9,69.788 C121.590667,69.788 122.150667,70.0166667 122.58,70.474 C123.009333,70.9313333 123.224,71.552 123.224,72.336 C123.224,73.1013333 123.009333,73.7126667 122.58,74.17 C122.150667,74.6273333 121.590667,74.856 120.9,74.856 L120.9,74.856 Z M135.46,86.224 C137.364,86.224 138.89,85.7246667 140.038,84.726 C141.186,83.7273333 141.76,82.3786667 141.76,80.68 C141.76,79.728 141.554667,78.916 141.144,78.244 C140.733333,77.572 140.224667,77.0166667 139.618,76.578 C139.011333,76.1393333 138.166667,75.6213333 137.084,75.024 L137.084,75.024 L136.496,74.688 C135.544,74.2213333 134.834667,73.8433333 134.368,73.554 C133.901333,73.2646667 133.556,72.9613333 133.332,72.644 C133.108,72.3266667 132.996,71.9533333 132.996,71.524 C132.996,70.908 133.187333,70.4273333 133.57,70.082 C133.952667,69.7366667 134.48,69.564 135.152,69.564 C135.954667,69.564 136.589333,69.788 137.056,70.236 C137.522667,70.684 137.756,71.244 137.756,71.916 L137.756,71.916 L137.756,72.42 C137.756,72.5133333 137.788667,72.5926667 137.854,72.658 C137.919333,72.7233333 137.998667,72.756 138.092,72.756 L138.092,72.756 L141.312,72.756 C141.405333,72.756 141.484667,72.7233333 141.55,72.658 C141.615333,72.5926667 141.648,72.5133333 141.648,72.42 L141.648,72.42 L141.648,71.86 C141.648,70.74 141.377333,69.7506667 140.836,68.892 C140.294667,68.0333333 139.538667,67.366 138.568,66.89 C137.597333,66.414 136.486667,66.176 135.236,66.176 C134.041333,66.176 132.977333,66.3953333 132.044,66.834 C131.110667,67.2726667 130.387333,67.898 129.874,68.71 C129.360667,69.522 129.104,70.4693333 129.104,71.552 C129.104,72.6346667 129.356,73.5586667 129.86,74.324 C130.364,75.0893333 130.970667,75.7146667 131.68,76.2 C132.389333,76.6853333 133.304,77.208 134.424,77.768 C135.338667,78.2346667 136.015333,78.6033333 136.454,78.874 C136.892667,79.1446667 137.233333,79.434 137.476,79.742 C137.718667,80.05 137.84,80.4186667 137.84,80.848 C137.84,81.4266667 137.648667,81.9026667 137.266,82.276 C136.883333,82.6493333 136.328,82.836 135.6,82.836 C134.778667,82.836 134.125333,82.6166667 133.64,82.178 C133.154667,81.7393333 132.912,81.1933333 132.912,80.54 L132.912,80.54 L132.912,80.008 C132.912,79.9146667 132.879333,79.8353333 132.814,79.77 C132.748667,79.7046667 132.669333,79.672 132.576,79.672 L132.576,79.672 L129.356,79.672 C129.262667,79.672 129.183333,79.7046667 129.118,79.77 C129.052667,79.8353333 129.02,79.9146667 129.02,80.008 L129.02,80.008 L129.02,80.736 C129.02,81.8186667 129.286,82.7753333 129.818,83.606 C130.35,84.4366667 131.101333,85.0806667 132.072,85.538 C133.042667,85.9953333 134.172,86.224 135.46,86.224 Z M45.076,108 C45.1693333,108 45.2486667,107.967333 45.314,107.902 C45.3793333,107.836667 45.412,107.757333 45.412,107.664 L45.412,107.664 L45.412,104.948 C45.412,104.854667 45.3793333,104.775333 45.314,104.71 C45.2486667,104.644667 45.1693333,104.612 45.076,104.612 L45.076,104.612 L37.572,104.612 C37.4786667,104.612 37.432,104.565333 37.432,104.472 L37.432,104.472 L37.432,88.736 C37.432,88.6426667 37.3993333,88.5633333 37.334,88.498 C37.2686667,88.4326667 37.1893333,88.4 37.096,88.4 L37.096,88.4 L33.82,88.4 C33.7266667,88.4 33.6473333,88.4326667 33.582,88.498 C33.5166667,88.5633333 33.484,88.6426667 33.484,88.736 L33.484,88.736 L33.484,107.664 C33.484,107.757333 33.5166667,107.836667 33.582,107.902 C33.6473333,107.967333 33.7266667,108 33.82,108 L33.82,108 L45.076,108 Z M51.068,108 C51.1613333,108 51.2406667,107.967333 51.306,107.902 C51.3713333,107.836667 51.404,107.757333 51.404,107.664 L51.404,107.664 L51.404,88.736 C51.404,88.6426667 51.3713333,88.5633333 51.306,88.498 C51.2406667,88.4326667 51.1613333,88.4 51.068,88.4 L51.068,88.4 L47.792,88.4 C47.6986667,88.4 47.6193333,88.4326667 47.554,88.498 C47.4886667,88.5633333 47.456,88.6426667 47.456,88.736 L47.456,88.736 L47.456,107.664 C47.456,107.757333 47.4886667,107.836667 47.554,107.902 C47.6193333,107.967333 47.6986667,108 47.792,108 L47.792,108 L51.068,108 Z M65.236,108 C65.3293333,108 65.4086667,107.967333 65.474,107.902 C65.5393333,107.836667 65.572,107.757333 65.572,107.664 L65.572,107.664 L65.572,104.948 C65.572,104.854667 65.5393333,104.775333 65.474,104.71 C65.4086667,104.644667 65.3293333,104.612 65.236,104.612 L65.236,104.612 L58.04,104.612 C57.928,104.612 57.9,104.556 57.956,104.444 L57.956,104.444 L65.46,92.096 C65.5346667,91.9653333 65.572,91.8253333 65.572,91.676 L65.572,91.676 L65.572,88.736 C65.572,88.6426667 65.5393333,88.5633333 65.474,88.498 C65.4086667,88.4326667 65.3293333,88.4 65.236,88.4 L65.236,88.4 L53.924,88.4 C53.8306667,88.4 53.7513333,88.4326667 53.686,88.498 C53.6206667,88.5633333 53.588,88.6426667 53.588,88.736 L53.588,88.736 L53.588,91.452 C53.588,91.5453333 53.6206667,91.6246667 53.686,91.69 C53.7513333,91.7553333 53.8306667,91.788 53.924,91.788 L53.924,91.788 L61.12,91.788 C61.232,91.788 61.26,91.844 61.204,91.956 L61.204,91.956 L53.7,104.304 C53.6253333,104.434667 53.588,104.574667 53.588,104.724 L53.588,104.724 L53.588,107.664 C53.588,107.757333 53.6206667,107.836667 53.686,107.902 C53.7513333,107.967333 53.8306667,108 53.924,108 L53.924,108 L65.236,108 Z M70.724,108 C70.9106667,108 71.032,107.906667 71.088,107.72 L71.088,107.72 L71.732,104.976 C71.7506667,104.901333 71.7973333,104.864 71.872,104.864 L71.872,104.864 L77.108,104.864 C77.1826667,104.864 77.2293333,104.901333 77.248,104.976 L77.248,104.976 L77.892,107.72 C77.948,107.906667 78.0786667,108 78.284,108 L78.284,108 L81.7,108 C81.9053333,108 82.008,107.916 82.008,107.748 L82.008,107.748 L81.98,107.636 L76.94,88.68 C76.884,88.4933333 76.7533333,88.4 76.548,88.4 L76.548,88.4 L72.488,88.4 C72.2826667,88.4 72.152,88.4933333 72.096,88.68 L72.096,88.68 L67.056,107.636 C67,107.878667 67.0933333,108 67.336,108 L67.336,108 L70.724,108 Z M76.324,101.812 L72.628,101.812 C72.5906667,101.812 72.5533333,101.798 72.516,101.77 C72.4786667,101.742 72.4693333,101.7 72.488,101.644 L72.488,101.644 L74.364,93.524 C74.3826667,93.4493333 74.4106667,93.412 74.448,93.412 C74.4853333,93.412 74.5133333,93.4493333 74.532,93.524 L74.532,93.524 L76.464,101.644 C76.4826667,101.7 76.4733333,101.742 76.436,101.77 C76.3986667,101.798 76.3613333,101.812 76.324,101.812 L76.324,101.812 Z M87.692,108 C87.7853333,108 87.8646667,107.967333 87.93,107.902 C87.9953333,107.836667 88.028,107.757333 88.028,107.664 L88.028,107.664 L88.028,100.02 C88.028,99.9266667 88.0746667,99.88 88.168,99.88 L88.168,99.88 L89.932,99.88 C89.988,99.88 90.0346667,99.9173333 90.072,99.992 L90.072,99.992 L92.9,107.72 C92.956,107.906667 93.0866667,108 93.292,108 L93.292,108 L96.708,108 C96.9133333,108 97.016,107.916 97.016,107.748 C97.016,107.692 97.0066667,107.645333 96.988,107.608 L96.988,107.608 L93.796,99.572 C93.7586667,99.4786667 93.7866667,99.4133333 93.88,99.376 C94.832,98.9466667 95.5693333,98.2933333 96.092,97.416 C96.6146667,96.5386667 96.876,95.5026667 96.876,94.308 C96.876,93.1506667 96.6426667,92.124 96.176,91.228 C95.7093333,90.332 95.0466667,89.6366667 94.188,89.142 C93.3293333,88.6473333 92.3493333,88.4 91.248,88.4 L91.248,88.4 L84.416,88.4 C84.3226667,88.4 84.2433333,88.4326667 84.178,88.498 C84.1126667,88.5633333 84.08,88.6426667 84.08,88.736 L84.08,88.736 L84.08,107.664 C84.08,107.757333 84.1126667,107.836667 84.178,107.902 C84.2433333,107.967333 84.3226667,108 84.416,108 L84.416,108 L87.692,108 Z M90.604,96.856 L88.168,96.856 C88.0746667,96.856 88.028,96.8093333 88.028,96.716 L88.028,96.716 L88.028,91.928 C88.028,91.8346667 88.0746667,91.788 88.168,91.788 L88.168,91.788 L90.604,91.788 C91.2946667,91.788 91.8546667,92.0166667 92.284,92.474 C92.7133333,92.9313333 92.928,93.552 92.928,94.336 C92.928,95.1013333 92.7133333,95.7126667 92.284,96.17 C91.8546667,96.6273333 91.2946667,96.856 90.604,96.856 L90.604,96.856 Z M105.64,108 C106.890667,108 107.996667,107.766667 108.958,107.3 C109.919333,106.833333 110.661333,106.170667 111.184,105.312 C111.706667,104.453333 111.968,103.454667 111.968,102.316 L111.968,102.316 L111.968,94.084 C111.968,92.9453333 111.706667,91.9466667 111.184,91.088 C110.661333,90.2293333 109.919333,89.5666667 108.958,89.1 C107.996667,88.6333333 106.890667,88.4 105.64,88.4 L105.64,88.4 L99.62,88.4 C99.5266667,88.4 99.4473333,88.4326667 99.382,88.498 C99.3166667,88.5633333 99.284,88.6426667 99.284,88.736 L99.284,88.736 L99.284,107.664 C99.284,107.757333 99.3166667,107.836667 99.382,107.902 C99.4473333,107.967333 99.5266667,108 99.62,108 L99.62,108 L105.64,108 Z M103.372,104.612 C103.278667,104.612 103.232,104.565333 103.232,104.472 L103.232,104.472 L103.232,91.928 C103.232,91.8346667 103.278667,91.788 103.372,91.788 L103.372,91.788 L105.668,91.788 C106.377333,91.788 106.946667,92.0353333 107.376,92.53 C107.805333,93.0246667 108.02,93.692 108.02,94.532 L108.02,94.532 L108.02,101.868 C108.001333,102.689333 107.777333,103.347333 107.348,103.842 C106.918667,104.336667 106.358667,104.584 105.668,104.584 L105.668,104.584 L103.372,104.612 Z M39.364,130.224 C41.268,130.224 42.794,129.724667 43.942,128.726 C45.09,127.727333 45.664,126.378667 45.664,124.68 C45.664,123.728 45.4586667,122.916 45.048,122.244 C44.6373333,121.572 44.1286667,121.016667 43.522,120.578 C42.9153333,120.139333 42.0706667,119.621333 40.988,119.024 L40.988,119.024 L40.4,118.688 C39.448,118.221333 38.7386667,117.843333 38.272,117.554 C37.8053333,117.264667 37.46,116.961333 37.236,116.644 C37.012,116.326667 36.9,115.953333 36.9,115.524 C36.9,114.908 37.0913333,114.427333 37.474,114.082 C37.8566667,113.736667 38.384,113.564 39.056,113.564 C39.8586667,113.564 40.4933333,113.788 40.96,114.236 C41.4266667,114.684 41.66,115.244 41.66,115.916 L41.66,115.916 L41.66,116.42 C41.66,116.513333 41.6926667,116.592667 41.758,116.658 C41.8233333,116.723333 41.9026667,116.756 41.996,116.756 L41.996,116.756 L45.216,116.756 C45.3093333,116.756 45.3886667,116.723333 45.454,116.658 C45.5193333,116.592667 45.552,116.513333 45.552,116.42 L45.552,116.42 L45.552,115.86 C45.552,114.74 45.2813333,113.750667 44.74,112.892 C44.1986667,112.033333 43.4426667,111.366 42.472,110.89 C41.5013333,110.414 40.3906667,110.176 39.14,110.176 C37.9453333,110.176 36.8813333,110.395333 35.948,110.834 C35.0146667,111.272667 34.2913333,111.898 33.778,112.71 C33.2646667,113.522 33.008,114.469333 33.008,115.552 C33.008,116.634667 33.26,117.558667 33.764,118.324 C34.268,119.089333 34.8746667,119.714667 35.584,120.2 C36.2933333,120.685333 37.208,121.208 38.328,121.768 C39.2426667,122.234667 39.9193333,122.603333 40.358,122.874 C40.7966667,123.144667 41.1373333,123.434 41.38,123.742 C41.6226667,124.05 41.744,124.418667 41.744,124.848 C41.744,125.426667 41.5526667,125.902667 41.17,126.276 C40.7873333,126.649333 40.232,126.836 39.504,126.836 C38.6826667,126.836 38.0293333,126.616667 37.544,126.178 C37.0586667,125.739333 36.816,125.193333 36.816,124.54 L36.816,124.54 L36.816,124.008 C36.816,123.914667 36.7833333,123.835333 36.718,123.77 C36.6526667,123.704667 36.5733333,123.672 36.48,123.672 L36.48,123.672 L33.26,123.672 C33.1666667,123.672 33.0873333,123.704667 33.022,123.77 C32.9566667,123.835333 32.924,123.914667 32.924,124.008 L32.924,124.008 L32.924,124.736 C32.924,125.818667 33.19,126.775333 33.722,127.606 C34.254,128.436667 35.0053333,129.080667 35.976,129.538 C36.9466667,129.995333 38.076,130.224 39.364,130.224 Z M51.572,130 C51.6653333,130 51.7446667,129.967333 51.81,129.902 C51.8753333,129.836667 51.908,129.757333 51.908,129.664 L51.908,129.664 L51.908,122.384 C51.908,122.290667 51.9546667,122.244 52.048,122.244 L52.048,122.244 L55.072,122.244 C56.192,122.244 57.186,122.001333 58.054,121.516 C58.922,121.030667 59.594,120.344667 60.07,119.458 C60.546,118.571333 60.784,117.549333 60.784,116.392 C60.784,115.216 60.546,114.170667 60.07,113.256 C59.594,112.341333 58.922,111.632 58.054,111.128 C57.186,110.624 56.192,110.372 55.072,110.372 L55.072,110.372 L48.296,110.372 C48.2026667,110.372 48.1233333,110.404667 48.058,110.47 C47.9926667,110.535333 47.96,110.614667 47.96,110.708 L47.96,110.708 L47.96,129.664 C47.96,129.757333 47.9926667,129.836667 48.058,129.902 C48.1233333,129.967333 48.2026667,130 48.296,130 L48.296,130 L51.572,130 Z M54.428,119.108 L52.048,119.108 C51.9546667,119.108 51.908,119.061333 51.908,118.968 L51.908,118.968 L51.908,113.928 C51.908,113.834667 51.9546667,113.788 52.048,113.788 L52.048,113.788 L54.428,113.788 C55.156,113.788 55.7393333,114.030667 56.178,114.516 C56.6166667,115.001333 56.836,115.654667 56.836,116.476 C56.836,117.278667 56.6166667,117.918 56.178,118.394 C55.7393333,118.87 55.156,119.108 54.428,119.108 L54.428,119.108 Z M69.072,130.252 C70.36,130.252 71.4986667,129.990667 72.488,129.468 C73.4773333,128.945333 74.2426667,128.208 74.784,127.256 C75.3253333,126.304 75.596,125.193333 75.596,123.924 L75.596,123.924 L75.596,116.476 C75.596,115.225333 75.3253333,114.124 74.784,113.172 C74.2426667,112.22 73.4773333,111.482667 72.488,110.96 C71.4986667,110.437333 70.36,110.176 69.072,110.176 C67.784,110.176 66.65,110.437333 65.67,110.96 C64.69,111.482667 63.9293333,112.22 63.388,113.172 C62.8466667,114.124 62.576,115.225333 62.576,116.476 L62.576,116.476 L62.576,123.924 C62.576,125.193333 62.8466667,126.304 63.388,127.256 C63.9293333,128.208 64.69,128.945333 65.67,129.468 C66.65,129.990667 67.784,130.252 69.072,130.252 Z M69.072,126.864 C68.3066667,126.864 67.6906667,126.607333 67.224,126.094 C66.7573333,125.580667 66.524,124.913333 66.524,124.092 L66.524,124.092 L66.524,116.364 C66.524,115.524 66.7573333,114.847333 67.224,114.334 C67.6906667,113.820667 68.3066667,113.564 69.072,113.564 C69.856,113.564 70.4813333,113.820667 70.948,114.334 C71.4146667,114.847333 71.648,115.524 71.648,116.364 L71.648,116.364 L71.648,124.092 C71.648,124.913333 71.4146667,125.580667 70.948,126.094 C70.4813333,126.607333 69.856,126.864 69.072,126.864 Z M84.304,130.224 C85.5733333,130.224 86.6933333,129.976667 87.664,129.482 C88.6346667,128.987333 89.386,128.282667 89.918,127.368 C90.45,126.453333 90.716,125.398667 90.716,124.204 L90.716,124.204 L90.716,124.12 C90.716,124.026667 90.6833333,123.947333 90.618,123.882 C90.5526667,123.816667 90.4733333,123.784 90.38,123.784 L90.38,123.784 L87.104,123.644 C86.88,123.644 86.768,123.746667 86.768,123.952 L86.768,123.952 L86.768,124.316 C86.768,125.081333 86.544,125.692667 86.096,126.15 C85.648,126.607333 85.0506667,126.836 84.304,126.836 C83.5573333,126.836 82.96,126.607333 82.512,126.15 C82.064,125.692667 81.84,125.081333 81.84,124.316 L81.84,124.316 L81.84,116.112 C81.84,115.346667 82.064,114.730667 82.512,114.264 C82.96,113.797333 83.5573333,113.564 84.304,113.564 C85.0506667,113.564 85.648,113.797333 86.096,114.264 C86.544,114.730667 86.768,115.346667 86.768,116.112 L86.768,116.112 L86.768,116.476 C86.768,116.681333 86.88,116.784 87.104,116.784 L87.104,116.784 L90.38,116.644 C90.4733333,116.644 90.5526667,116.606667 90.618,116.532 C90.6833333,116.457333 90.716,116.373333 90.716,116.28 L90.716,116.28 L90.716,116.14 C90.716,114.945333 90.45,113.9 89.918,113.004 C89.386,112.108 88.6346667,111.412667 87.664,110.918 C86.6933333,110.423333 85.5733333,110.176 84.304,110.176 C83.0346667,110.176 81.9146667,110.428 80.944,110.932 C79.9733333,111.436 79.222,112.15 78.69,113.074 C78.158,113.998 77.892,115.066667 77.892,116.28 L77.892,116.28 L77.892,124.064 C77.892,125.296 78.158,126.378667 78.69,127.312 C79.222,128.245333 79.9733333,128.964 80.944,129.468 C81.9146667,129.972 83.0346667,130.224 84.304,130.224 Z M96.848,130 C96.9413333,130 97.0206667,129.967333 97.086,129.902 C97.1513333,129.836667 97.184,129.757333 97.184,129.664 L97.184,129.664 L97.184,124.064 C97.184,124.026667 97.2026667,123.970667 97.24,123.896 L97.24,123.896 L98.5,122.076 C98.5373333,122.02 98.5746667,121.992 98.612,121.992 C98.6493333,121.992 98.6773333,122.02 98.696,122.076 L98.696,122.076 L102.672,129.748 C102.765333,129.916 102.896,130 103.064,130 L103.064,130 L106.648,130 C106.853333,130 106.956,129.925333 106.956,129.776 C106.956,129.738667 106.937333,129.682667 106.9,129.608 L106.9,129.608 L101.412,119.024 C101.393333,118.949333 101.393333,118.884 101.412,118.828 L101.412,118.828 L106.592,110.792 C106.666667,110.68 106.680667,110.586667 106.634,110.512 C106.587333,110.437333 106.498667,110.4 106.368,110.4 L106.368,110.4 L102.756,110.4 C102.588,110.4 102.457333,110.474667 102.364,110.624 L102.364,110.624 L97.352,118.24 C97.3333333,118.296 97.3006667,118.314667 97.254,118.296 C97.2073333,118.277333 97.184,118.24 97.184,118.184 L97.184,118.184 L97.184,110.736 C97.184,110.642667 97.1513333,110.563333 97.086,110.498 C97.0206667,110.432667 96.9413333,110.4 96.848,110.4 L96.848,110.4 L93.572,110.4 C93.4786667,110.4 93.3993333,110.432667 93.334,110.498 C93.2686667,110.563333 93.236,110.642667 93.236,110.736 L93.236,110.736 L93.236,129.664 C93.236,129.757333 93.2686667,129.836667 93.334,129.902 C93.3993333,129.967333 93.4786667,130 93.572,130 L93.572,130 L96.848,130 Z" id="path-1"></path>
        <filter x="-5.5%" y="-2.8%" width="111.0%" height="111.1%" filterUnits="objectBoundingBox" id="filter-2">
            <feOffset dx="0" dy="3" in="SourceAlpha" result="shadowOffsetOuter1"></feOffset>
            <feGaussianBlur stdDeviation="1.5" in="shadowOffsetOuter1" result="shadowBlurOuter1"></feGaussianBlur>
            <feColorMatrix values="0 0 0 0 0   0 0 0 0 0   0 0 0 0 0  0 0 0 0.196705638 0" type="matrix" in="shadowBlurOuter1"></feColorMatrix>
        </filter>
    </defs>
    <g id="Designs" stroke="none" stroke-width="1" fill="none" fill-rule="evenodd">
        <g id="Desktop---Bonus---Step-1" transform="translate(-363.000000, -70.000000)" fill-rule="nonzero">
            <g id="Group-7" transform="translate(333.000000, 48.000000)">
                <g id="ROCKPAPERSCISSORSLIZARDSPOCK">
                    <use fill="black" fill-opacity="1" filter="url(#filter-2)" xlink:href="#path-1"></use>
                    <use fill="#FFFFFF" xlink:href="#path-1"></use>
                </g>
            </g>
        </g>
    </g>
</svg>